<?xml version="1.0" encoding="UTF-8" standalone="no"?>
<!-- Generator: Adobe Illustrator 13.0.2, SVG Export Plug-In . SVG Version: 6.00 Build 14948)  -->

<svg
   id="Layer_1"
   style="enable-background:new 0 0 217.604 276.167"
   xml:space="preserve"
   viewBox="0 0 217.604 276.167"
   version="1.1"
   y="0px"
   x="0px"
   sodipodi:docname="2.svg"
   inkscape:version="1.4 (e7c3feb100, 2024-10-09)"
   xmlns:inkscape="http://www.inkscape.org/namespaces/inkscape"
   xmlns:sodipodi="http://sodipodi.sourceforge.net/DTD/sodipodi-0.dtd"
   xmlns="http://www.w3.org/2000/svg"
   xmlns:svg="http://www.w3.org/2000/svg"
   xmlns:rdf="http://www.w3.org/1999/02/22-rdf-syntax-ns#"
   xmlns:cc="http://creativecommons.org/ns#"
   xmlns:dc="http://purl.org/dc/elements/1.1/"><defs
   id="defs36"><inkscape:path-effect
     effect="bspline"
     id="path-effect42"
     is_visible="true"
     lpeversion="1.3"
     weight="33.333333"
     steps="2"
     helper_size="0"
     apply_no_weight="true"
     apply_with_weight="true"
     only_selected="false"
     uniform="false" /><inkscape:path-effect
     effect="bspline"
     id="path-effect41"
     is_visible="true"
     lpeversion="1.3"
     weight="33.333333"
     steps="2"
     helper_size="0"
     apply_no_weight="true"
     apply_with_weight="true"
     only_selected="false"
     uniform="false" /><inkscape:path-effect
     effect="bspline"
     id="path-effect40"
     is_visible="true"
     lpeversion="1.3"
     weight="33.333333"
     steps="2"
     helper_size="0"
     apply_no_weight="true"
     apply_with_weight="true"
     only_selected="false"
     uniform="false" /><inkscape:path-effect
     effect="bspline"
     id="path-effect39"
     is_visible="true"
     lpeversion="1.3"
     weight="33.333333"
     steps="2"
     helper_size="0"
     apply_no_weight="true"
     apply_with_weight="true"
     only_selected="false"
     uniform="false" /><inkscape:path-effect
     effect="bspline"
     id="path-effect38"
     is_visible="true"
     lpeversion="1.3"
     weight="33.333333"
     steps="2"
     helper_size="0"
     apply_no_weight="true"
     apply_with_weight="true"
     only_selected="false"
     uniform="false" /><inkscape:path-effect
     effect="bspline"
     id="path-effect37"
     is_visible="true"
     lpeversion="1.3"
     weight="33.333333"
     steps="2"
     helper_size="0"
     apply_no_weight="true"
     apply_with_weight="true"
     only_selected="false"
     uniform="false" /><inkscape:path-effect
     effect="bspline"
     id="path-effect36"
     is_visible="true"
     lpeversion="1.3"
     weight="33.333333"
     steps="2"
     helper_size="0"
     apply_no_weight="true"
     apply_with_weight="true"
     only_selected="false"
     uniform="false" /><inkscape:path-effect
     effect="bspline"
     id="path-effect35"
     is_visible="true"
     lpeversion="1.3"
     weight="33.333333"
     steps="2"
     helper_size="0"
     apply_no_weight="true"
     apply_with_weight="true"
     only_selected="false"
     uniform="false" /><inkscape:path-effect
     effect="bspline"
     id="path-effect34"
     is_visible="true"
     lpeversion="1.3"
     weight="33.333333"
     steps="2"
     helper_size="0"
     apply_no_weight="true"
     apply_with_weight="true"
     only_selected="false"
     uniform="false" /><inkscape:path-effect
     effect="bspline"
     id="path-effect33"
     is_visible="true"
     lpeversion="1.3"
     weight="33.333333"
     steps="2"
     helper_size="0"
     apply_no_weight="true"
     apply_with_weight="true"
     only_selected="false"
     uniform="false" /><inkscape:path-effect
     effect="bspline"
     id="path-effect32"
     is_visible="true"
     lpeversion="1.3"
     weight="33.333333"
     steps="2"
     helper_size="0"
     apply_no_weight="true"
     apply_with_weight="true"
     only_selected="false"
     uniform="false" /><inkscape:path-effect
     effect="bspline"
     id="path-effect31"
     is_visible="true"
     lpeversion="1.3"
     weight="33.333333"
     steps="2"
     helper_size="0"
     apply_no_weight="true"
     apply_with_weight="true"
     only_selected="false"
     uniform="false" /><inkscape:path-effect
     effect="bspline"
     id="path-effect30"
     is_visible="true"
     lpeversion="1.3"
     weight="33.333333"
     steps="2"
     helper_size="0"
     apply_no_weight="true"
     apply_with_weight="true"
     only_selected="false"
     uniform="false" /><inkscape:path-effect
     effect="bspline"
     id="path-effect29"
     is_visible="true"
     lpeversion="1.3"
     weight="33.333333"
     steps="2"
     helper_size="0"
     apply_no_weight="true"
     apply_with_weight="true"
     only_selected="false"
     uniform="false" /><inkscape:path-effect
     effect="bspline"
     id="path-effect28"
     is_visible="true"
     lpeversion="1.3"
     weight="33.333333"
     steps="2"
     helper_size="0"
     apply_no_weight="true"
     apply_with_weight="true"
     only_selected="false"
     uniform="false" /><inkscape:path-effect
     effect="bspline"
     id="path-effect27"
     is_visible="true"
     lpeversion="1.3"
     weight="33.333333"
     steps="2"
     helper_size="0"
     apply_no_weight="true"
     apply_with_weight="true"
     only_selected="false"
     uniform="false" /><inkscape:path-effect
     effect="bspline"
     id="path-effect26"
     is_visible="true"
     lpeversion="1.3"
     weight="33.333333"
     steps="2"
     helper_size="0"
     apply_no_weight="true"
     apply_with_weight="true"
     only_selected="false"
     uniform="false" /><inkscape:path-effect
     effect="bspline"
     id="path-effect25"
     is_visible="true"
     lpeversion="1.3"
     weight="33.333333"
     steps="2"
     helper_size="0"
     apply_no_weight="true"
     apply_with_weight="true"
     only_selected="false"
     uniform="false" /><inkscape:path-effect
     effect="bspline"
     id="path-effect9"
     is_visible="true"
     lpeversion="1.3"
     weight="33.333333"
     steps="2"
     helper_size="0"
     apply_no_weight="true"
     apply_with_weight="true"
     only_selected="false"
     uniform="false" /><inkscape:path-effect
     effect="bspline"
     id="path-effect24"
     is_visible="true"
     lpeversion="1.3"
     weight="33.333333"
     steps="2"
     helper_size="0"
     apply_no_weight="true"
     apply_with_weight="true"
     only_selected="false"
     uniform="false" /><inkscape:path-effect
     effect="bspline"
     id="path-effect23"
     is_visible="true"
     lpeversion="1.3"
     weight="33.333333"
     steps="2"
     helper_size="0"
     apply_no_weight="true"
     apply_with_weight="true"
     only_selected="false"
     uniform="false" /><inkscape:path-effect
     effect="bspline"
     id="path-effect22"
     is_visible="true"
     lpeversion="1.3"
     weight="33.333333"
     steps="2"
     helper_size="0"
     apply_no_weight="true"
     apply_with_weight="true"
     only_selected="false"
     uniform="false" /><inkscape:path-effect
     effect="bspline"
     id="path-effect21"
     is_visible="true"
     lpeversion="1.3"
     weight="33.333333"
     steps="2"
     helper_size="0"
     apply_no_weight="true"
     apply_with_weight="true"
     only_selected="false"
     uniform="false" /><inkscape:path-effect
     effect="bspline"
     id="path-effect20"
     is_visible="true"
     lpeversion="1.3"
     weight="33.333333"
     steps="2"
     helper_size="0"
     apply_no_weight="true"
     apply_with_weight="true"
     only_selected="false"
     uniform="false" /><inkscape:path-effect
     effect="bspline"
     id="path-effect19"
     is_visible="true"
     lpeversion="1.3"
     weight="33.333333"
     steps="2"
     helper_size="0"
     apply_no_weight="true"
     apply_with_weight="true"
     only_selected="false"
     uniform="false" /><inkscape:path-effect
     effect="bspline"
     id="path-effect18"
     is_visible="true"
     lpeversion="1.3"
     weight="33.333333"
     steps="2"
     helper_size="0"
     apply_no_weight="true"
     apply_with_weight="true"
     only_selected="false"
     uniform="false" /><inkscape:path-effect
     effect="bspline"
     id="path-effect17"
     is_visible="true"
     lpeversion="1.3"
     weight="33.333333"
     steps="2"
     helper_size="0"
     apply_no_weight="true"
     apply_with_weight="true"
     only_selected="false"
     uniform="false" /><inkscape:path-effect
     effect="bspline"
     id="path-effect16"
     is_visible="true"
     lpeversion="1.3"
     weight="33.333333"
     steps="2"
     helper_size="0"
     apply_no_weight="true"
     apply_with_weight="true"
     only_selected="false"
     uniform="false" /><inkscape:path-effect
     effect="bspline"
     id="path-effect15"
     is_visible="true"
     lpeversion="1.3"
     weight="33.333333"
     steps="2"
     helper_size="0"
     apply_no_weight="true"
     apply_with_weight="true"
     only_selected="false"
     uniform="false" /><inkscape:path-effect
     effect="bspline"
     id="path-effect14"
     is_visible="true"
     lpeversion="1.3"
     weight="33.333333"
     steps="2"
     helper_size="0"
     apply_no_weight="true"
     apply_with_weight="true"
     only_selected="false"
     uniform="false" /><inkscape:path-effect
     effect="bspline"
     id="path-effect13"
     is_visible="true"
     lpeversion="1.3"
     weight="33.333333"
     steps="2"
     helper_size="0"
     apply_no_weight="true"
     apply_with_weight="true"
     only_selected="false"
     uniform="false" /><inkscape:path-effect
     effect="bspline"
     id="path-effect12"
     is_visible="true"
     lpeversion="1.3"
     weight="33.333333"
     steps="2"
     helper_size="0"
     apply_no_weight="true"
     apply_with_weight="true"
     only_selected="false"
     uniform="false" /><inkscape:path-effect
     effect="bspline"
     id="path-effect11"
     is_visible="true"
     lpeversion="1.3"
     weight="33.333333"
     steps="2"
     helper_size="0"
     apply_no_weight="true"
     apply_with_weight="true"
     only_selected="false"
     uniform="false" /><inkscape:path-effect
     effect="bspline"
     id="path-effect10"
     is_visible="true"
     lpeversion="1.3"
     weight="33.333333"
     steps="2"
     helper_size="0"
     apply_no_weight="true"
     apply_with_weight="true"
     only_selected="false"
     uniform="false" /><inkscape:path-effect
     effect="bspline"
     id="path-effect8"
     is_visible="true"
     lpeversion="1.3"
     weight="33.333333"
     steps="2"
     helper_size="0"
     apply_no_weight="true"
     apply_with_weight="true"
     only_selected="false"
     uniform="false" /><inkscape:path-effect
     effect="bspline"
     id="path-effect7"
     is_visible="true"
     lpeversion="1.3"
     weight="33.333333"
     steps="2"
     helper_size="0"
     apply_no_weight="true"
     apply_with_weight="true"
     only_selected="false"
     uniform="false" /><inkscape:path-effect
     effect="bspline"
     id="path-effect6"
     is_visible="true"
     lpeversion="1.3"
     weight="33.333333"
     steps="2"
     helper_size="0"
     apply_no_weight="true"
     apply_with_weight="true"
     only_selected="false"
     uniform="false" /><inkscape:path-effect
     effect="bspline"
     id="path-effect5"
     is_visible="true"
     lpeversion="1.3"
     weight="33.333333"
     steps="2"
     helper_size="0"
     apply_no_weight="true"
     apply_with_weight="true"
     only_selected="false"
     uniform="false" /><inkscape:path-effect
     effect="bspline"
     id="path-effect4"
     is_visible="true"
     lpeversion="1.3"
     weight="33.333333"
     steps="2"
     helper_size="0"
     apply_no_weight="true"
     apply_with_weight="true"
     only_selected="false"
     uniform="false" /><inkscape:path-effect
     effect="bspline"
     id="path-effect3"
     is_visible="true"
     lpeversion="1.3"
     weight="33.333333"
     steps="2"
     helper_size="0"
     apply_no_weight="true"
     apply_with_weight="true"
     only_selected="false"
     uniform="false" /><inkscape:path-effect
     effect="bspline"
     id="path-effect2"
     is_visible="true"
     lpeversion="1.3"
     weight="33.333333"
     steps="2"
     helper_size="0"
     apply_no_weight="true"
     apply_with_weight="true"
     only_selected="false"
     uniform="false" /><inkscape:path-effect
     effect="bspline"
     id="path-effect2-3"
     is_visible="true"
     lpeversion="1.3"
     weight="33.333333"
     steps="2"
     helper_size="0"
     apply_no_weight="true"
     apply_with_weight="true"
     only_selected="false"
     uniform="false" /><inkscape:path-effect
     effect="bspline"
     id="path-effect3-7"
     is_visible="true"
     lpeversion="1.3"
     weight="33.333333"
     steps="2"
     helper_size="0"
     apply_no_weight="true"
     apply_with_weight="true"
     only_selected="false"
     uniform="false" /><inkscape:path-effect
     effect="bspline"
     id="path-effect4-3"
     is_visible="true"
     lpeversion="1.3"
     weight="33.333333"
     steps="2"
     helper_size="0"
     apply_no_weight="true"
     apply_with_weight="true"
     only_selected="false"
     uniform="false" /><inkscape:path-effect
     effect="bspline"
     id="path-effect12-6"
     is_visible="true"
     lpeversion="1.3"
     weight="33.333333"
     steps="2"
     helper_size="0"
     apply_no_weight="true"
     apply_with_weight="true"
     only_selected="false"
     uniform="false" /><inkscape:path-effect
     effect="bspline"
     id="path-effect17-2"
     is_visible="true"
     lpeversion="1.3"
     weight="33.333333"
     steps="2"
     helper_size="0"
     apply_no_weight="true"
     apply_with_weight="true"
     only_selected="false"
     uniform="false" /><inkscape:path-effect
     effect="bspline"
     id="path-effect16-9"
     is_visible="true"
     lpeversion="1.3"
     weight="33.333333"
     steps="2"
     helper_size="0"
     apply_no_weight="true"
     apply_with_weight="true"
     only_selected="false"
     uniform="false" /><inkscape:path-effect
     effect="bspline"
     id="path-effect15-1"
     is_visible="true"
     lpeversion="1.3"
     weight="33.333333"
     steps="2"
     helper_size="0"
     apply_no_weight="true"
     apply_with_weight="true"
     only_selected="false"
     uniform="false" /><inkscape:path-effect
     effect="bspline"
     id="path-effect14-2"
     is_visible="true"
     lpeversion="1.3"
     weight="33.333333"
     steps="2"
     helper_size="0"
     apply_no_weight="true"
     apply_with_weight="true"
     only_selected="false"
     uniform="false" /><inkscape:path-effect
     effect="bspline"
     id="path-effect13-7"
     is_visible="true"
     lpeversion="1.3"
     weight="33.333333"
     steps="2"
     helper_size="0"
     apply_no_weight="true"
     apply_with_weight="true"
     only_selected="false"
     uniform="false" /><inkscape:path-effect
     effect="bspline"
     id="path-effect23-2"
     is_visible="true"
     lpeversion="1.3"
     weight="33.333333"
     steps="2"
     helper_size="0"
     apply_no_weight="true"
     apply_with_weight="true"
     only_selected="false"
     uniform="false" /><inkscape:path-effect
     effect="bspline"
     id="path-effect22-6"
     is_visible="true"
     lpeversion="1.3"
     weight="33.333333"
     steps="2"
     helper_size="0"
     apply_no_weight="true"
     apply_with_weight="true"
     only_selected="false"
     uniform="false" /><inkscape:path-effect
     effect="bspline"
     id="path-effect21-1"
     is_visible="true"
     lpeversion="1.3"
     weight="33.333333"
     steps="2"
     helper_size="0"
     apply_no_weight="true"
     apply_with_weight="true"
     only_selected="false"
     uniform="false" /><inkscape:path-effect
     effect="bspline"
     id="path-effect20-8"
     is_visible="true"
     lpeversion="1.3"
     weight="33.333333"
     steps="2"
     helper_size="0"
     apply_no_weight="true"
     apply_with_weight="true"
     only_selected="false"
     uniform="false" /><inkscape:path-effect
     effect="bspline"
     id="path-effect19-7"
     is_visible="true"
     lpeversion="1.3"
     weight="33.333333"
     steps="2"
     helper_size="0"
     apply_no_weight="true"
     apply_with_weight="true"
     only_selected="false"
     uniform="false" /><inkscape:path-effect
     effect="bspline"
     id="path-effect18-9"
     is_visible="true"
     lpeversion="1.3"
     weight="33.333333"
     steps="2"
     helper_size="0"
     apply_no_weight="true"
     apply_with_weight="true"
     only_selected="false"
     uniform="false" /><inkscape:path-effect
     effect="bspline"
     id="path-effect24-9"
     is_visible="true"
     lpeversion="1.3"
     weight="33.333333"
     steps="2"
     helper_size="0"
     apply_no_weight="true"
     apply_with_weight="true"
     only_selected="false"
     uniform="false" /><inkscape:path-effect
     effect="bspline"
     id="path-effect29-7"
     is_visible="true"
     lpeversion="1.3"
     weight="33.333333"
     steps="2"
     helper_size="0"
     apply_no_weight="true"
     apply_with_weight="true"
     only_selected="false"
     uniform="false" /></defs><sodipodi:namedview
   id="namedview36"
   pagecolor="#ffffff"
   bordercolor="#000000"
   borderopacity="0.25"
   inkscape:showpageshadow="2"
   inkscape:pageopacity="0.0"
   inkscape:pagecheckerboard="0"
   inkscape:deskcolor="#d1d1d1"
   inkscape:zoom="9.42"
   inkscape:cx="86.624204"
   inkscape:cy="145.64756"
   inkscape:window-width="1920"
   inkscape:window-height="1011"
   inkscape:window-x="0"
   inkscape:window-y="0"
   inkscape:window-maximized="1"
   inkscape:current-layer="Layer_1" />




































<metadata
   id="metadata36"><rdf:RDF><cc:Work><dc:format>image/svg+xml</dc:format><dc:type
         rdf:resource="http://purl.org/dc/dcmitype/StillImage" /><cc:license
         rdf:resource="http://creativecommons.org/licenses/publicdomain/" /><dc:publisher><cc:Agent
           rdf:about="http://openclipart.org/"><dc:title>Openclipart</dc:title></cc:Agent></dc:publisher><dc:date>2009-10-12T00:46:56</dc:date><dc:description>from a U.S. patent application</dc:description><dc:source>https://openclipart.org/detail/27768/raindrop-character-by-johnny_automatic</dc:source><dc:creator><cc:Agent><dc:title>johnny_automatic</dc:title></cc:Agent></dc:creator><dc:subject><rdf:Bag><rdf:li>cartoon</rdf:li><rdf:li>character</rdf:li><rdf:li>drop</rdf:li><rdf:li>externalsource</rdf:li><rdf:li>rain</rdf:li><rdf:li>raindrop</rdf:li></rdf:Bag></dc:subject></cc:Work><cc:License
       rdf:about="http://creativecommons.org/licenses/publicdomain/"><cc:permits
         rdf:resource="http://creativecommons.org/ns#Reproduction" /><cc:permits
         rdf:resource="http://creativecommons.org/ns#Distribution" /><cc:permits
         rdf:resource="http://creativecommons.org/ns#DerivativeWorks" /></cc:License></rdf:RDF></metadata><g
   inkscape:groupmode="layer"
   id="layer1"
   inkscape:label="Layer 1"><path
     id="path8"
     style="opacity:1;fill:#aa4400;stroke-width:2.719;stroke-linecap:round"
     d="M 93.09375 250.48633 C 93.053148 250.47832 93.009187 250.48491 92.962891 250.50391 C 92.592519 250.65585 92.022797 251.68046 91.310547 252.53516 C 90.598296 253.38986 89.743618 254.07478 88.138672 254.85352 C 86.533725 255.63225 84.178893 256.50527 81.529297 257.3125 C 78.879701 258.11973 75.935228 258.86128 70.474609 259.6875 C 65.013991 260.51372 57.037674 261.4246 51.054688 262.00391 C 45.071701 262.58321 41.082086 262.83075 37.910156 262.7168 C 34.738227 262.60284 32.383734 262.12725 30.484375 261.58594 C 28.585016 261.04462 27.141357 260.43732 26.201172 260.08594 C 25.260986 259.73455 24.824367 259.63915 24.691406 261.03516 C 24.558445 262.43117 24.72884 265.31716 24.947266 267.20703 C 25.165692 269.0969 25.432676 269.98972 26.296875 270.73047 C 27.161074 271.47122 28.622237 272.06038 31.214844 272.74414 C 33.80745 273.42791 37.529982 274.20787 40.796875 274.7207 C 44.063768 275.23353 46.875769 275.47908 51.386719 274.94727 C 55.897669 274.41545 62.108636 273.10598 69.326172 271.05469 C 76.543707 269.00339 84.768097 266.2105 89.203125 264.53906 C 93.638153 262.86762 94.283183 262.31759 94.558594 261.46289 C 94.834005 260.60819 94.738225 259.44904 94.529297 257.78711 C 94.320369 256.12518 93.998871 253.9611 93.751953 252.51758 C 93.5359 251.2545 93.377964 250.54242 93.09375 250.48633 z M 123.78906 252.51367 C 123.74128 252.52065 123.69397 252.53569 123.64648 252.55469 C 123.45655 252.63066 123.26684 252.7834 123.17188 252.85938 L 123.07617 252.93359 C 122.63933 256.0675 122.20231 259.20305 122.17383 260.85547 C 122.14535 262.50789 122.5258 262.67827 125.50781 263.73242 C 128.48982 264.78657 134.07476 266.72335 140.85547 268.67969 C 147.63618 270.63602 155.61215 272.61162 160.60742 273.65625 C 165.60269 274.70088 167.61706 274.81553 169.82031 274.85352 C 172.02357 274.8915 174.41632 274.85233 177.25586 274.39648 C 180.0954 273.94064 183.38153 273.06719 185.88867 272.33594 C 188.39581 271.60469 190.12321 271.01578 191.02539 270.60742 C 191.92757 270.19906 192.00396 269.97223 192.21289 268.30078 C 192.42182 266.62934 192.76314 263.51361 192.74414 261.99414 C 192.72514 260.47467 192.34479 260.5503 191.89844 260.74023 C 191.45209 260.93017 190.94092 261.23422 190.0957 261.64258 C 189.25049 262.05094 188.07283 262.56381 186.50586 263.16211 C 184.93889 263.76041 182.98102 264.44356 179.61914 264.51953 C 176.25726 264.5955 171.49163 264.06477 164.98633 263.24805 C 158.48102 262.43132 150.23697 261.32939 144.39648 260.4082 C 138.55599 259.48702 135.11962 258.74627 132.58398 258.0625 C 130.04835 257.37873 128.41332 256.75213 127.2832 256.06836 C 126.15309 255.38459 125.52696 254.64295 125.09961 254.03516 C 124.67226 253.42736 124.44525 252.95422 124.23633 252.7168 C 124.07963 252.53873 123.9324 252.49275 123.78906 252.51367 z " /><path
     id="path7"
     style="enable-background:new 0 0 217.604 276.167;opacity:1;fill:#225500;stroke-width:2.719;stroke-linecap:round"
     d="M 135.51172 236.18945 C 134.51121 236.18945 133.44797 236.29511 132.49805 236.45703 C 131.23148 236.67292 130.16638 236.98926 129.69141 237.59375 C 129.21644 238.19824 129.33273 239.09019 129.5918 239.82422 C 129.85086 240.55825 130.25309 241.13441 131.36133 241.60938 C 132.46957 242.08434 134.28245 242.45845 135.7793 242.70312 C 137.27615 242.9478 138.45616 243.06357 138.90234 242.57422 C 139.34853 242.08487 139.06106 240.9894 139.08984 239.95312 C 139.11863 238.91685 139.46456 237.93869 139.11914 237.29102 C 138.77372 236.64334 137.73655 236.32731 136.48438 236.22656 C 136.17133 236.20137 135.84522 236.18945 135.51172 236.18945 z M 84.101562 236.63086 C 82.792418 236.62161 81.421818 236.74603 80.326172 236.85938 C 79.074004 236.98891 78.180221 237.10428 77.935547 237.75195 C 77.690873 238.39962 78.094056 239.58019 78.166016 240.63086 C 78.237975 241.68153 77.980227 242.60143 78.296875 243.0332 C 78.613523 243.46498 79.504167 243.40751 81.058594 243.14844 C 82.61302 242.88936 84.830169 242.42944 86.154297 241.81055 C 87.478425 241.19166 87.909411 240.41465 88.197266 239.62305 C 88.48512 238.83144 88.629174 238.02472 88.039062 237.49219 C 87.448951 236.95966 86.126268 236.7021 84.658203 236.64453 C 84.474695 236.63734 84.288583 236.63218 84.101562 236.63086 z " /><path
     id="path6"
     style="opacity:1;fill:#44aa00;stroke-width:2.719;stroke-linecap:round"
     d="M 162.61328 230.83398 C 161.81269 230.86817 160.97356 230.99422 160.11719 231.24609 C 158.40445 231.74984 156.62115 232.75717 154.86523 234.0957 C 153.10932 235.43424 151.3821 237.10327 150.1875 238.62891 C 148.9929 240.15454 148.33001 241.53722 147.94141 242.58789 C 147.5528 243.63856 147.43767 244.35833 146.73242 244.57422 C 146.02717 244.7901 144.73135 244.50147 143.07617 244.19922 C 141.421 243.89697 139.40684 243.58022 137.40625 243.14844 C 135.40566 242.71665 133.42055 242.16976 132.08203 241.66602 C 130.74351 241.16227 130.05248 240.70222 129.43359 240.48633 C 128.81471 240.27043 128.2676 240.30007 127.99414 240.31445 C 127.72068 240.32884 127.71942 240.32862 127.04297 241.83984 C 126.36652 243.35107 125.01525 246.37388 124.55469 248.61914 C 124.09413 250.8644 124.52543 252.33233 125.1875 253.61328 C 125.84957 254.89424 126.7408 255.98767 129.30273 257.05273 C 131.86467 258.1178 136.09715 259.15399 142.50195 260.29102 C 148.90676 261.42805 157.48424 262.66522 163.6875 263.5 C 169.89076 264.33478 173.71869 264.76644 176.68359 264.86719 C 179.64849 264.96793 181.75109 264.73764 184.3418 263.93164 C 186.9325 263.12564 190.01191 261.7449 191.45117 260.24805 C 192.89044 258.7512 192.68951 257.1384 192.14258 255.58398 C 191.59565 254.02957 190.70314 252.53393 189.49414 251.31055 C 188.28515 250.08717 186.75874 249.13724 184.55664 247.95703 C 182.35454 246.77682 179.47646 245.365 177.2168 244.47266 C 174.95714 243.58031 173.31659 243.2066 172.33789 242.35742 C 171.35919 241.50824 171.04267 240.18474 170.9707 238.875 C 170.89874 237.56526 171.07004 236.26912 170.72461 235.14648 C 170.37918 234.02385 169.51603 233.07439 168.49414 232.36914 C 167.47225 231.6639 166.29331 231.20294 164.88281 230.97266 C 164.17757 230.85752 163.41387 230.7998 162.61328 230.83398 z M 53.3125 231.44141 C 52.212255 231.45659 51.231935 231.68859 50.359375 232.06641 C 48.963278 232.67091 47.840609 233.65092 47.279297 234.61523 C 46.717984 235.57955 46.71938 236.52944 46.589844 237.30664 C 46.460308 238.08385 46.199637 238.68671 46.113281 239.52148 C 46.026926 240.35626 46.113246 241.42159 45.451172 242.28516 C 44.789097 243.14872 43.380195 243.81188 40.703125 244.87695 C 38.026055 245.94202 34.080828 247.41 31.375 249.05078 C 28.669172 250.69156 27.20157 252.5049 26.179688 254.04492 C 25.157805 255.58495 24.583045 256.84993 24.640625 257.85742 C 24.698205 258.86492 25.388329 259.61486 26.798828 260.36328 C 28.209327 261.1117 30.3403 261.85954 32.125 262.36328 C 33.9097 262.86703 35.347328 263.12675 37.693359 263.16992 C 40.03939 263.2131 43.292918 263.04035 48.128906 262.50781 C 52.964894 261.97528 59.384872 261.08181 64.998047 260.18945 C 70.611222 259.2971 75.418045 258.4059 79.160156 257.67188 C 82.902267 256.93785 85.578467 256.36141 87.521484 255.54102 C 89.464502 254.72062 90.673035 253.65482 91.507812 252.47461 C 92.34259 251.2944 92.80355 249.9998 92.904297 248.83398 C 93.005043 247.66817 92.745846 246.6315 92.126953 245.29297 C 91.50806 243.95444 90.529978 242.31473 89.853516 241.45117 C 89.177053 240.58761 88.802393 240.50172 88.068359 240.81836 C 87.334326 241.135 86.241322 241.85296 84.542969 242.37109 C 82.844615 242.88923 80.542055 243.20668 78.181641 243.68164 C 75.821226 244.1566 73.402248 244.79039 72.078125 244.91992 C 70.754002 245.04945 70.523192 244.67526 69.904297 243.71094 C 69.285402 242.74661 68.279428 241.19105 66.912109 239.52148 C 65.544791 237.85192 63.816492 236.06818 61.787109 234.62891 C 59.757727 233.18963 57.426373 232.09584 55.425781 231.66406 C 54.675559 231.50215 53.972647 231.4323 53.3125 231.44141 z " /><path
     style="display:inline;opacity:1;fill:#ff0000;stroke-width:2.554;stroke-linecap:round"
     d="m 94.875379,185.48801 c 0.559049,0.95504 2.143023,2.77195 3.727012,4.21617 1.583989,1.44422 3.167929,2.51571 4.647099,3.19123 1.47917,0.67552 2.85347,0.95504 4.35593,0.93175 1.50246,-0.0233 3.13299,-0.34941 5.21781,-1.05988 2.08481,-0.71047 4.62378,-1.80525 6.80176,-3.33101 2.17798,-1.52576 3.99486,-3.48239 4.21613,-4.33261 0.22128,-0.85022 -1.15302,-0.59399 -2.83019,-0.43094 -1.67717,0.16306 -3.6571,0.23294 -6.2078,0.3727 -2.55069,0.13977 -5.67199,0.34941 -8.5255,0.31446 -2.8535,-0.0349 -5.43906,-0.31446 -7.232686,-0.5241 -1.793626,-0.20965 -2.795235,-0.34941 -3.528995,-0.3727 -0.733759,-0.0233 -1.199619,0.0699 -0.64057,1.02493 z"
     id="path5"
     inkscape:path-effect="#path-effect29"
     inkscape:original-d="m 93.850454,184.62614 c 1.583974,1.81691 3.167948,3.63382 4.751922,5.45073 1.584004,1.07153 3.167944,2.14302 4.751924,3.21453 1.37436,0.27954 2.74866,0.55905 4.12299,0.83858 1.63059,-0.32612 3.26112,-0.65223 4.89168,-0.97834 2.53907,-1.09483 5.07804,-2.18961 7.61705,-3.28441 1.81695,-1.95672 3.63383,-3.91335 5.45074,-5.87003 -1.37436,0.25624 -2.74866,0.51247 -4.12299,0.7687 -1.98001,0.0699 -3.95994,0.13976 -5.93991,0.20964 -3.12142,0.20965 -6.24272,0.41929 -9.36408,0.62893 -2.58565,-0.27953 -5.17121,-0.55905 -7.75681,-0.83857 -1.001651,-0.13977 -2.003261,-0.27953 -3.004892,-0.41929 -0.465884,0.0932 -0.931749,0.18635 -1.397624,0.27953 z" /><path
     id="path4"
     style="display:inline;opacity:1;fill:#5599ff;stroke-width:2.554;stroke-linecap:round"
     d="m 55.443359,121.05859 c -1.245989,0.003 -2.498897,0.1426 -3.734375,0.45313 -3.294607,0.82807 -6.466105,2.87168 -8.492187,4.33398 -2.026083,1.46231 -2.906925,2.34231 -3.470703,2.97657 -0.563778,0.63425 -0.810026,1.02255 -1.039063,1.41015 -0.229036,0.3876 -0.440491,0.77563 0.01758,2.39649 0.458068,1.62086 1.58603,4.47417 3.259766,7.24023 1.673736,2.76606 3.893386,5.4449 6.113281,7.34766 2.219896,1.90276 4.439535,3.02945 6.976563,3.82226 2.537027,0.79282 5.39158,1.25192 8.404297,1.26953 3.012716,0.0176 6.183907,-0.40631 9.478515,-1.23437 3.294608,-0.82806 6.710973,-2.06074 8.419922,-2.83594 1.70895,-0.7752 1.709628,-1.09161 1.427735,-2.02539 -0.281896,-0.93377 -0.845286,-2.48473 -1.884766,-4.89844 -1.03948,-2.4137 -2.554301,-5.69113 -4.439453,-8.38672 -1.885152,-2.69558 -4.140791,-4.80837 -6.642578,-6.62304 -2.501788,-1.81467 -5.250792,-3.32987 -8.333985,-4.28125 -1.926995,-0.59461 -3.983898,-0.96984 -6.060547,-0.96485 z m 102.810551,0.11914 c -1.22445,-0.0176 -2.49301,0.10499 -3.84961,0.31641 -2.71321,0.42283 -5.7793,1.19845 -8.35157,2.39648 -2.57226,1.19805 -4.64936,2.81898 -6.8164,5.12696 -2.16704,2.30798 -4.42384,5.30146 -6.13281,8.4375 -1.70898,3.13604 -2.87062,6.41353 -3.08204,8.36914 -0.21141,1.9556 0.52809,2.59039 1.91993,3.20703 1.39183,0.61664 3.43496,1.21579 5.4082,1.65625 1.97324,0.44046 3.87752,0.72214 6.20312,0.95117 2.3256,0.22904 5.07295,0.40434 7.34571,0.38672 2.27275,-0.0176 4.06981,-0.22923 6.00781,-0.77539 1.938,-0.54616 4.01751,-1.42565 5.76172,-2.3418 1.74421,-0.91615 3.153,-1.86729 4.58008,-3.54101 1.42707,-1.67373 2.87247,-4.07096 3.98242,-6.36133 1.10995,-2.29037 1.8844,-4.47467 2.04297,-6.16602 0.15857,-1.69135 -0.2989,-2.88993 -1.12696,-4.05273 -0.82805,-1.1628 -2.0272,-2.29 -3.80664,-3.59375 -1.77943,-1.30375 -4.13916,-2.78354 -6.5,-3.48828 -1.18042,-0.35237 -2.36149,-0.50973 -3.58593,-0.52735 z m -11.79883,8.83594 c 0.31161,-0.005 0.64664,0.003 1.00781,0.0254 1.44468,0.0881 3.31288,0.40493 4.86328,0.98633 1.5504,0.5814 2.783,1.42728 3.73438,2.48438 0.95138,1.05709 1.62033,2.32507 1.95507,3.66406 0.33478,1.33898 0.33472,2.74874 0.0176,4.1582 -0.31713,1.40946 -0.95144,2.81934 -1.6914,4.10547 -0.73997,1.28613 -1.58428,2.44754 -3.16992,3.1875 -1.58565,0.73996 -3.91277,1.05737 -6.20313,0.74023 -2.29036,-0.31713 -4.54372,-1.26883 -5.93555,-2.43164 -1.39183,-1.1628 -1.92103,-2.53597 -2.29101,-3.89257 -0.36998,-1.3566 -0.5822,-2.69614 -0.5293,-4.05274 0.0529,-1.3566 0.37144,-2.72949 1.07617,-4.01562 0.70473,-1.28613 1.7969,-2.48457 2.64258,-3.25977 0.84568,-0.7752 1.44347,-1.12835 2.25391,-1.375 0.60783,-0.18499 1.33468,-0.31022 2.26953,-0.32422 z m -82.865236,0.2461 c 0.267451,0.003 0.524334,0.0125 0.77539,0.0215 1.004227,0.0352 1.88195,0.047 2.955078,0.24609 1.07313,0.19907 2.341501,0.58633 3.328126,1.27344 0.986622,0.68711 1.691955,1.67274 2.308593,3.01172 0.616639,1.33898 1.14449,3.03107 1.16211,4.82812 0.01762,1.79707 -0.476356,3.69956 -1.427735,5.26758 -0.951378,1.56803 -2.359355,2.80093 -4.085937,3.59375 -1.726583,0.79283 -3.7709,1.14493 -5.744141,0.96875 -1.973241,-0.17617 -3.875734,-0.88065 -5.267578,-1.83203 -1.391844,-0.95138 -2.27211,-2.14885 -2.853516,-3.68164 -0.581407,-1.53278 -0.863837,-3.40008 -0.617187,-5.25 0.24665,-1.84991 1.020595,-3.68229 2.271484,-5.10937 1.250889,-1.42708 2.979071,-2.44937 4.419922,-2.92969 1.080638,-0.3602 1.973037,-0.4172 2.775391,-0.4082 z" /><path
     id="path3"
     style="display:inline;opacity:1;fill:#00ffff;stroke-width:2.554;stroke-linecap:round"
     d="m 146.45508,130.01367 c -0.93485,0.014 -1.6617,0.13923 -2.26953,0.32422 -0.81044,0.24665 -1.40823,0.5998 -2.25391,1.375 -0.84568,0.7752 -1.93785,1.97364 -2.64258,3.25977 -0.70473,1.28613 -1.02331,2.65902 -1.07617,4.01562 -0.0529,1.3566 0.15932,2.69614 0.5293,4.05274 0.36998,1.3566 0.89918,2.72977 2.29101,3.89257 1.39183,1.16281 3.64519,2.11451 5.93555,2.43164 2.29036,0.31714 4.61748,-2.7e-4 6.20313,-0.74023 1.58564,-0.73996 2.42995,-1.90137 3.16992,-3.1875 0.73996,-1.28613 1.37427,-2.69601 1.6914,-4.10547 0.31714,-1.40946 0.31717,-2.81922 -0.0176,-4.1582 -0.33474,-1.33899 -1.00369,-2.60697 -1.95507,-3.66406 -0.95138,-1.0571 -2.18398,-1.90298 -3.73438,-2.48438 -1.5504,-0.5814 -3.4186,-0.89824 -4.86328,-0.98633 -0.36117,-0.022 -0.6962,-0.0301 -1.00781,-0.0254 z m -82.865236,0.2461 c -0.802354,-0.009 -1.694753,0.048 -2.775391,0.4082 -1.440851,0.48032 -3.169033,1.50261 -4.419922,2.92969 -1.250889,1.42708 -2.024834,3.25946 -2.271484,5.10937 -0.24665,1.84992 0.03578,3.71722 0.617187,5.25 0.581406,1.53279 1.461672,2.73026 2.853516,3.68164 1.391844,0.95138 3.294337,1.65586 5.267578,1.83203 1.973241,0.17618 4.017558,-0.17592 5.744141,-0.96875 1.726582,-0.79282 3.134559,-2.02572 4.085937,-3.59375 0.951379,-1.56802 1.445358,-3.47052 1.427735,-5.26758 -0.01762,-1.79705 -0.545471,-3.48914 -1.16211,-4.82812 -0.616638,-1.33898 -1.32197,-2.32461 -2.308593,-3.01172 -0.986624,-0.68711 -2.254996,-1.07437 -3.328126,-1.27344 -1.073129,-0.19906 -1.950851,-0.21085 -2.955078,-0.24609 -0.251056,-0.009 -0.507939,-0.0185 -0.77539,-0.0215 z" /><path
     id="path2"
     style="opacity:1;fill:#0066ff;stroke-width:2.554;stroke-linecap:round"
     d="M 107.45508 2.6347656 C 107.33437 2.6623287 107.22364 2.7321859 107.11719 2.8183594 C 106.69139 3.1630531 106.32556 3.7706566 105.33203 5.9199219 C 104.3385 8.0691871 102.71752 11.760108 100.73047 15.632812 C 98.743418 19.505522 96.390827 23.559663 93.248047 27.837891 C 90.105266 32.116119 86.172161 36.61856 82.867188 40.410156 C 79.562213 44.201752 76.886263 47.283744 71.634766 52.798828 C 66.383268 58.313912 58.556715 66.26181 52.757812 72.587891 C 46.958911 78.913972 43.18779 83.616573 39.882812 88.259766 C 36.577838 92.902958 33.739087 97.485175 31.589844 101.39844 C 29.4406 105.31169 27.980045 108.55548 26.662109 112.46875 C 25.344174 116.38202 24.16882 120.96593 23.560547 126.35938 C 22.952274 131.75277 22.911727 137.9555 23.134766 142.51758 C 23.357804 147.07965 23.845127 149.99992 24.392578 152.55469 C 24.940029 155.10945 25.547045 157.29962 26.074219 158.82031 C 26.601393 160.341 27.048064 161.19265 27.919922 163.60547 C 28.791779 166.01828 30.090147 169.99223 31.996094 174.35156 C 33.90204 178.7109 36.415734 183.4544 39.294922 187.4082 C 42.17411 191.362 45.41794 194.5252 49.087891 197.66797 C 52.757841 200.81074 56.854022 203.93285 61.253906 206.77148 C 61.742056 207.08642 62.245183 207.38371 62.740234 207.69141 C 62.363 207.6696 61.953264 207.72894 61.46875 207.88867 C 59.967098 208.38372 57.756483 209.83595 55.759766 211.45312 C 53.763048 213.0703 51.980495 214.8509 50.693359 216.51758 C 49.406224 218.18426 48.614591 219.73574 48.185547 221.25391 C 47.756502 222.77208 47.689372 224.25751 47.837891 225.66016 C 47.986307 227.06184 48.349032 228.38019 48.580078 229.12305 L 48.21875 229.30664 C 48.383767 230.46176 48.546952 231.61811 49.207031 231.93164 C 49.86711 232.24517 51.023921 231.71619 52.558594 231.61719 C 54.093266 231.51818 56.007303 231.8473 58.185547 232.91992 C 60.36379 233.99255 62.805422 235.80861 64.703125 237.42578 C 66.600828 239.04296 67.953615 240.46179 68.679688 241.73242 C 69.40576 243.00306 69.504065 244.12477 70.015625 244.57031 C 70.527185 245.01586 71.451733 244.78464 72.837891 244.53711 C 74.224048 244.28958 76.071721 244.02541 77.111328 243.54688 C 78.150935 243.06832 78.38369 242.37675 78.367188 241.53516 C 78.350683 240.69356 78.084862 239.70264 77.259766 238.16797 C 76.434669 236.63329 75.049538 234.55492 73.712891 232.49219 C 72.376243 230.42946 71.089436 228.3838 70.214844 226.93164 C 69.340251 225.47949 68.877346 224.61969 68.943359 223.58008 C 69.009373 222.54046 69.604354 221.32043 70.875 219.88477 C 72.145646 218.44911 74.091866 216.79861 76.039062 215.14844 L 75.035156 215.6582 C 75.083649 215.59824 75.143158 215.53523 75.181641 215.47852 C 75.50229 215.00597 75.467023 214.64649 75.267578 214.36523 C 79.763058 216.36561 84.178453 217.90432 89.193359 218.83594 C 94.323182 219.7889 100.08084 220.11272 105.27148 220.23438 C 110.46212 220.35603 115.08504 220.27597 119.78906 219.72852 C 124.49308 219.18106 129.27754 218.1672 134.58984 216.2207 C 136.70453 215.44585 138.89382 214.50432 141.05664 213.51953 C 141.16464 213.68629 141.36462 213.91063 141.67969 214.25977 C 142.60701 215.28734 144.46073 217.34358 145.78906 219.12305 C 147.11739 220.90251 147.92055 222.4061 147.51953 224.48633 C 147.11851 226.56655 145.51302 229.22211 143.98242 231.62695 C 142.45182 234.03179 139.54276 238.33407 139.41992 238.92188 C 139.29709 239.50968 139.05249 240.67427 138.92188 241.49609 C 138.79126 242.31792 138.7729 242.79706 139.68555 243.25781 C 140.5982 243.71857 142.44178 244.16187 143.72656 244.3125 C 145.01135 244.46313 145.73794 244.32085 146.38477 243.77148 C 147.03159 243.22212 147.59792 242.26479 149.01562 240.55469 C 150.43333 238.84458 152.7019 236.38149 155.27148 234.60938 C 157.84107 232.83725 160.71292 231.75586 163.00781 231.39258 C 165.30271 231.0293 167.02053 231.38449 167.98633 231.05664 C 168.95213 230.72879 169.16501 229.71815 169.28906 228.2207 C 169.41311 226.72325 169.44865 224.73849 169.15625 223.01953 C 168.86385 221.30058 168.2442 219.847 167.26953 218.23438 C 166.29486 216.62174 164.9661 214.84958 163.60156 213.28125 C 162.23703 211.71292 160.83709 210.34995 159.60547 209.33984 C 158.37384 208.32973 157.30989 207.6724 156.42383 207.12305 C 155.80945 206.74213 155.27675 206.41936 154.62305 206.37109 C 157.00833 204.89287 159.15121 203.3947 161.47656 201.52148 C 165.12624 198.58146 169.30308 194.72924 173.17578 189.92383 C 176.47636 185.82833 179.51114 181.07343 181.89258 176.77344 C 181.95639 176.84057 182.04892 176.91491 182.17773 177.01367 C 182.67279 177.39321 183.66272 178.15121 184.57031 179.42188 C 185.47791 180.69252 186.3037 182.47601 186.94727 184.32422 C 187.23849 185.16056 187.489 185.99394 187.74414 186.76367 L 186.88672 191.51562 L 187.09766 191.5957 C 186.66673 193.11187 185.99007 195.40469 185.02734 197.53516 C 183.93177 199.9596 182.53248 201.98857 180.61523 203.86523 C 178.69799 205.7419 176.2626 207.46636 174.7207 208.73438 C 173.1788 210.00239 172.5293 210.81395 172.21484 212.03125 C 171.90039 213.24855 171.9204 214.87142 172.32617 216.11914 C 172.73195 217.36687 173.52313 218.23957 174.57812 218.99023 C 175.63312 219.7409 176.95256 220.36989 178.11914 220.66406 C 179.28572 220.95824 180.30117 220.9173 181.28516 220.35938 C 182.26914 219.80144 183.22099 218.72625 183.78906 218.47266 C 184.35713 218.21906 184.53998 218.78627 184.98633 220.37891 C 185.43267 221.97155 186.14303 224.58889 187.17773 227.38867 C 188.21244 230.18846 189.57127 233.17141 190.69727 235.06836 C 191.82326 236.96531 192.71648 237.77676 194.08594 238.26367 C 195.4554 238.75058 197.30262 238.91283 199.50391 238.52734 C 201.70519 238.14186 204.26094 237.20771 206.21875 236.14258 C 208.17656 235.07744 209.53466 233.8817 210.75195 232.28906 C 211.96925 230.69643 213.04527 228.70716 213.66406 226.19141 C 214.28285 223.67565 214.44457 220.63309 214.15039 217.58984 C 213.85621 214.5466 213.1053 211.50382 211.64453 208.15625 C 210.18377 204.80868 208.01382 201.15688 206.17773 198.41797 C 204.91007 196.52698 203.81227 195.10236 202.85352 194.0918 L 202.73438 190.18164 L 202.18945 190.04688 C 202.27392 189.36432 202.28321 188.52305 202.0957 187.31055 C 201.84817 185.70987 201.31951 183.59756 201.1875 182.12891 C 201.05549 180.66025 201.31952 179.83553 201.1875 178.96094 C 201.05548 178.08634 200.52894 177.16231 199.17578 175.57812 C 197.82262 173.99394 195.64408 171.74919 193.63086 170 C 191.61764 168.25081 189.7692 166.99601 188.74609 166.33594 C 187.72299 165.67587 187.52507 165.61025 187.31055 165.59375 C 187.19488 165.58485 187.07284 165.59708 186.89844 165.77734 C 187.39415 164.34326 187.85755 162.89894 188.28125 161.375 C 189.53836 156.85346 190.63224 151.66279 191.17969 145.31641 C 191.72713 138.97002 191.72697 131.4679 191.07812 125.58789 C 190.42929 119.70788 189.13261 115.45014 187.06445 110.32031 C 184.9963 105.19049 182.15769 99.189564 178.18359 92.964844 C 174.2095 86.740123 169.10022 80.292576 164.45703 74.878906 C 159.81384 69.465236 155.63709 65.084739 150.20312 59.427734 C 144.76916 53.77073 138.07811 46.837629 132.44141 40.410156 C 126.8047 33.982684 122.22255 28.061976 119.14062 23.662109 C 116.05872 19.262243 114.47773 16.383111 112.95703 13.078125 C 111.43634 9.7731385 109.97519 6.041613 109.00195 4.2167969 C 108.27202 2.8481848 107.81719 2.5520765 107.45508 2.6347656 z M 55.443359 121.05859 C 57.520008 121.0536 59.576911 121.42883 61.503906 122.02344 C 64.587099 122.97482 67.336103 124.49002 69.837891 126.30469 C 72.339678 128.11936 74.595317 130.23215 76.480469 132.92773 C 78.365621 135.62332 79.880442 138.90075 80.919922 141.31445 C 81.959402 143.72816 82.522792 145.27912 82.804688 146.21289 C 83.086579 147.14667 83.085903 147.46308 81.376953 148.23828 C 79.668004 149.01348 76.251639 150.24616 72.957031 151.07422 C 69.662423 151.90228 66.491232 152.32619 63.478516 152.30859 C 60.465799 152.29098 57.611246 151.83188 55.074219 151.03906 C 52.537191 150.24625 50.317552 149.11956 48.097656 147.2168 C 45.877761 145.31404 43.658111 142.6352 41.984375 139.86914 C 40.310639 137.10308 39.182677 134.24977 38.724609 132.62891 C 38.26654 131.00805 38.477995 130.62002 38.707031 130.23242 C 38.936068 129.84482 39.182316 129.45652 39.746094 128.82227 C 40.309872 128.18801 41.190714 127.30801 43.216797 125.8457 C 45.242879 124.3834 48.414377 122.33979 51.708984 121.51172 C 52.944462 121.20119 54.19737 121.06159 55.443359 121.05859 z M 158.25391 121.17773 C 159.47835 121.19535 160.65942 121.35271 161.83984 121.70508 C 164.20068 122.40982 166.56041 123.88961 168.33984 125.19336 C 170.11928 126.49711 171.31843 127.62431 172.14648 128.78711 C 172.97454 129.94991 173.43201 131.14849 173.27344 132.83984 C 173.11487 134.53119 172.34042 136.71549 171.23047 139.00586 C 170.12052 141.29623 168.67512 143.69346 167.24805 145.36719 C 165.82097 147.04091 164.41218 147.99205 162.66797 148.9082 C 160.92376 149.82435 158.84425 150.70384 156.90625 151.25 C 154.96825 151.79616 153.17119 152.00779 150.89844 152.02539 C 148.62568 152.04301 145.87833 151.86771 143.55273 151.63867 C 141.22713 151.40964 139.32285 151.12796 137.34961 150.6875 C 135.37637 150.24704 133.33324 149.64789 131.94141 149.03125 C 130.54957 148.41461 129.81007 147.77982 130.02148 145.82422 C 130.2329 143.86861 131.39454 140.59112 133.10352 137.45508 C 134.81249 134.31904 137.06929 131.32556 139.23633 129.01758 C 141.40337 126.7096 143.48047 125.08869 146.05273 123.89062 C 148.625 122.69259 151.69109 121.91697 154.4043 121.49414 C 155.7609 121.28272 157.02946 121.16013 158.25391 121.17773 z M 27.185547 164.57812 C 26.767076 164.57503 26.2549 164.8305 25.611328 165.26367 C 24.753232 165.84124 23.664297 166.73275 22.410156 167.75586 C 21.156016 168.77897 19.736079 169.93364 18.564453 171.07227 C 17.392827 172.21089 16.469541 173.33371 15.792969 174.25781 C 15.116396 175.18191 14.686779 175.90849 14.40625 176.60156 C 14.125721 177.29464 13.994139 177.95429 13.994141 178.63086 C 13.994142 179.30743 14.125959 180.0002 13.960938 180.8418 C 13.795915 181.68339 13.333742 182.67236 12.970703 183.39844 C 12.607665 184.12451 12.344026 184.58786 12.228516 185.06641 C 12.113005 185.54496 12.146006 186.0393 12.228516 186.40234 C 12.311026 186.76538 12.443205 186.99618 12.740234 187.65625 C 12.776527 187.7369 12.841426 187.85372 12.882812 187.94531 L 12.792969 191.21289 C 12.490592 191.54518 12.210042 191.99376 11.728516 192.65039 C 10.831706 193.87332 9.2238826 195.78354 7.8378906 197.74023 C 6.4518985 199.69692 5.2867276 201.69947 4.2734375 203.95898 C 3.2601474 206.2185 2.3988297 208.7357 1.828125 211.16992 C 1.2574202 213.60414 0.97815878 215.95671 0.91992188 218.12305 C 0.86168497 220.28939 1.0241429 222.26799 1.4550781 224.23633 C 1.8860133 226.20467 2.5847317 228.16261 3.65625 229.82812 C 4.7277684 231.49365 6.1724332 232.86669 8.1640625 234.05469 C 10.155692 235.24268 12.695285 236.2457 14.59375 236.81641 C 16.492215 237.38711 17.750297 237.52554 19.066406 237.23438 C 20.382515 236.94321 21.756144 236.22094 23.386719 234.04297 C 25.017293 231.865 26.903797 228.23134 28.091797 225.51758 C 29.279796 222.80383 29.769946 221.01099 30.154297 219.625 C 30.538649 218.239 30.817899 217.26117 31.376953 217.16797 C 31.936007 217.07479 32.775202 217.86592 33.695312 218.29688 C 34.615423 218.72782 35.615547 218.79842 36.617188 218.72852 C 37.618827 218.65864 38.621694 218.4486 39.669922 217.71484 C 40.71815 216.98109 41.812964 215.72266 42.523438 214.45312 C 43.233908 213.18361 43.559538 211.90355 43.396484 210.83203 C 43.23343 209.7605 42.581498 208.89776 41.544922 207.83789 C 40.508346 206.77802 39.087092 205.5206 37.689453 204.42578 C 36.291813 203.33096 34.916953 202.39952 33.484375 200.67578 C 32.051796 198.95203 30.561173 196.43695 29.710938 194.44531 C 28.860702 192.45367 28.650475 190.98588 28.347656 189.96094 C 28.298213 189.79359 28.235428 189.65834 28.175781 189.51562 L 27.769531 185.9043 L 27.140625 185.8457 C 27.414187 185.20539 27.506945 184.50823 27.65625 183.76172 C 27.953286 182.27655 28.481546 180.59426 29.306641 179.22461 C 30.131735 177.85496 31.253276 176.7993 31.632812 175.9082 C 32.012349 175.01711 31.649633 174.28946 31.039062 172.73828 C 30.428492 171.1871 29.570626 168.81181 28.976562 167.24414 C 28.382499 165.67648 28.052772 164.91744 27.574219 164.66992 C 27.45458 164.60804 27.325037 164.57916 27.185547 164.57812 z M 95.253906 184.46094 C 95.335776 184.45875 95.423905 184.45998 95.515625 184.46289 C 96.249384 184.48618 97.251296 184.62629 99.044922 184.83594 C 100.83855 185.04558 103.42384 185.32443 106.27734 185.35938 C 109.13085 185.39432 112.25204 185.18469 114.80273 185.04492 C 117.35343 184.90516 119.33455 184.83492 121.01172 184.67188 C 122.68889 184.50881 124.06307 184.2533 123.8418 185.10352 C 123.62052 185.95373 121.80298 187.90979 119.625 189.43555 C 117.44702 190.96131 114.90708 192.05711 112.82227 192.76758 C 110.73745 193.47805 109.10793 193.80486 107.60547 193.82812 C 106.10301 193.85142 104.72917 193.57005 103.25 192.89453 C 101.77083 192.21901 100.18555 191.1493 98.601562 189.70508 C 97.017573 188.26086 95.434049 186.44332 94.875 185.48828 C 94.385832 184.65262 94.68082 184.47622 95.253906 184.46094 z M 67.638672 210.56836 C 69.344732 211.50631 71.060762 212.38025 72.777344 213.20312 C 72.637212 213.16483 72.507378 213.12869 72.359375 213.08594 C 71.616792 212.87141 70.759603 212.57423 69.439453 211.76562 C 68.896589 211.43312 68.271234 211.00846 67.638672 210.56836 z " /><path
     id="path1"
     style="display:inline;fill:#000000;stroke-linecap:round"
     d="m 107.43164,0.2734375 c -0.003,0.001943 -0.005,0.003896 -0.008,0.005859 -0.61174,-0.14660396 -1.23912,0.17413141 -1.47852,0.7558593 -2.33191,6.382069 -4.64015,12.6850472 -8.130857,18.7636722 -3.490712,6.07863 -8.218239,12.029072 -14.453125,19.058594 -6.234886,7.029522 -13.958569,15.120566 -21.443359,22.912109 -7.484791,7.791544 -14.753671,15.303931 -20.646485,22.933594 -5.892812,7.629661 -10.362613,15.322335 -13.474609,22.355465 -3.111995,7.03314 -4.879837,13.46734 -5.566406,21.14453 -0.686569,7.67723 -0.31338,16.61659 1.43164,25.2793 0.672047,3.33621 1.599077,6.59725 2.640625,9.80078 -2.006716,1.22644 -4.082962,2.50386 -6.027343,4.27149 -2.002162,1.82015 -3.752394,4.04835 -5.046875,5.71679 -1.294481,1.66845 -2.272962,2.75147 -2.5625,4.19922 -0.144769,0.72387 0.01612,1.36978 0.154296,1.77539 0.138175,0.40562 0.19544,0.61205 0.19336,0.56836 -0.0042,-0.0873 -0.324319,0.62793 -0.720703,1.94922 -0.396383,1.32129 -0.626956,3.04818 -0.626953,4.72071 0.771943,3.79772 -0.937805,5.36594 -3.228516,8.35742 -1.6014831,2.08764 -3.6213113,4.69267 -5.2363281,8.07226 -1.6150153,3.37959 -2.78570864,7.42415 -3.32031252,11.13672 -0.53460345,3.71257 -0.42107339,7.06091 0.15624999,9.88672 0.57732261,2.82581 1.62838063,5.1334 3.00585943,6.98047 1.3774766,1.84706 3.0497438,3.20311 4.6347656,4.20898 1.5850193,1.00588 3.1407626,1.6896 4.8535156,2.23047 1.712752,0.54087 3.626133,0.96656 5.443359,1.06055 1.817224,0.094 3.726669,-0.19319 5.384766,-1.50586 1.658091,-1.31267 2.950236,-3.39656 4.082031,-5.7793 1.131794,-2.38273 2.067755,-5.07711 2.798828,-7.70898 0.535086,-1.92631 0.955464,-3.80963 1.259766,-5.45899 0.361548,0.49652 0.747722,0.95643 1.173828,1.34961 1.201186,1.10838 2.783067,1.39882 4.267578,1.12891 1.484506,-0.26992 3.11838,-0.93742 4.421875,-1.83984 1.303495,-0.90243 2.200891,-2.09689 2.732422,-3.5254 0.53153,-1.42849 0.791218,-3.11631 0.583985,-4.70507 -0.207234,-1.58876 -1.027182,-3.08103 -2.621094,-4.41993 -1.593912,-1.33887 -3.878078,-2.63988 -5.558594,-3.88671 -1.680518,-1.24684 -2.85046,-2.47255 -3.697266,-3.58399 -0.846807,-1.11143 -1.363633,-2.09356 -1.796875,-3.06836 -0.433242,-0.97479 -0.742696,-1.85447 -1.011718,-2.98437 -0.269023,-1.12991 -0.497261,-2.55389 -0.771485,-3.74219 -0.23574,-0.99941 -0.67986,-1.86511 -0.527344,-2.88281 0.103118,-0.84475 0.132391,-1.68535 0.232422,-2.37305 0.200063,-1.37541 0.679705,-2.49093 1.433594,-3.63476 0.501112,-0.76031 1.136251,-1.53112 1.822266,-2.31446 0.0661,0.12828 0.122907,0.26681 0.189453,0.39453 3.856255,7.4015 8.501804,13.93135 15.1875,19.99219 3.650043,3.30891 7.897323,6.43439 12.269531,9.25 -1.47677,0.81694 -2.910646,1.63952 -4.089844,2.47266 -1.510766,1.06739 -2.532276,2.12214 -3.466796,3.19922 -0.93452,1.07707 -1.842206,2.23591 -2.59961,3.27734 -0.757404,1.04143 -1.387128,1.99562 -1.894531,3.02734 -0.507402,1.03172 -0.878424,2.11164 -1.128906,3.23047 -0.250482,1.11883 -0.384306,2.28433 -0.367188,3.41406 0.01712,1.12973 0.175888,2.10234 0.232422,3.03516 0.05653,0.93282 0.02786,1.97488 -0.002,2.64453 -0.02976,0.66965 -0.05524,0.92744 -0.08594,1.23438 8.61e-4,0.0734 0.008,0.14659 0.02148,0.21875 -0.903447,1.18873 -1.502398,2.64339 -1.78711,4.15234 -0.330296,1.75055 -0.215,3.45487 -0.09766,5.06641 -1.018288,0.32447 -2.033833,0.64493 -3.068359,0.98632 -3.076616,1.01529 -6.073424,2.03075 -8.337891,3.0586 -2.264465,1.02784 -3.742352,2.06414 -4.882812,3.02539 -1.140459,0.96125 -2.030306,1.91306 -2.759766,2.96484 -0.729458,1.05178 -1.312108,2.21603 -1.691406,3.47461 -0.379299,1.25859 -0.535298,2.52048 -0.669922,3.41797 -0.134624,0.89749 -0.277097,1.73776 -0.197266,3.58985 0.07983,1.85205 0.351891,4.74412 0.628907,6.45507 0.138507,0.85548 0.270081,1.51796 0.693359,2.14063 0.423278,0.62267 1.037733,0.96318 1.646484,1.24219 1.217503,0.55802 3.190833,1.26019 5.330078,1.91601 2.139245,0.65583 4.437252,1.25577 6.960938,1.68164 2.523685,0.42587 5.278214,0.67836 8.371094,0.61524 3.092877,-0.0631 6.505378,-0.43999 10.511718,-1.1543 4.00634,-0.71431 8.610657,-1.765 12.859375,-2.95898 4.248718,-1.19399 8.112353,-2.5254 11.722657,-3.78516 3.610303,-1.25977 6.988845,-2.4564 9.308593,-3.25 2.319749,-0.7936 3.579797,-1.10052 4.595704,-1.82617 0.507947,-0.36283 0.930066,-0.97935 1.058593,-1.56641 0.128528,-0.58706 0.08039,-1.07569 0.04102,-1.63476 -0.07874,-1.11814 -0.23519,-2.80698 -0.533203,-4.76758 -0.298013,-1.96061 -0.736103,-4.1798 -1.31836,-6.36719 -0.582256,-2.18739 -1.303158,-4.33987 -2.191406,-6.13281 -0.888247,-1.79294 -1.910839,-3.1434 -2.378906,-3.82422 -0.291311,-0.42373 -0.362474,-0.54283 -0.396484,-0.625 0.329081,-0.56002 0.185349,-1.27784 -0.333985,-1.66797 -0.368327,-0.27625 -0.783884,-0.59551 -1.298828,-0.86328 -0.514947,-0.26778 -0.993927,-0.40855 -1.277344,-0.49805 -0.283416,-0.0895 -0.635165,-0.19748 -1.083984,-0.23828 -0.448825,-0.0408 -0.944437,-0.0371 -1.542969,-0.0371 h -1.99414 c -0.690615,0 -1.442938,3.4e-4 -2.359376,0.11914 -0.79456,0.103 -1.654898,0.28271 -2.509765,0.46875 l -0.002,-0.002 c -0.162151,-0.23853 -0.339354,-0.49656 -0.533203,-0.76953 -0.7754,-1.09189 -1.776027,-2.39417 -2.763672,-3.84571 -0.987645,-1.45153 -1.985969,-3.08573 -2.814453,-4.54687 -0.828485,-1.46114 -1.376488,-2.73561 -1.400391,-3.27734 -0.0239,-0.54171 0.248869,-0.9444 1.060547,-1.85938 0.811677,-0.91498 1.899462,-2.03445 2.998047,-3.08789 0.927613,-0.8895 1.874683,-1.74202 2.830078,-2.5957 5.413998,2.17963 10.39443,3.53663 14.941406,4.27148 8.190508,1.3237 23.217968,1.33028 31.449218,0 5.02435,-0.812 10.59429,-2.41718 16.67969,-5.02344 1.0803,0.9637 2.14916,1.92067 3.19531,2.92383 1.09859,1.05344 2.18637,2.17291 2.99805,3.08789 0.81168,0.91498 1.08445,1.31767 1.06055,1.85938 -0.0239,0.54173 -0.57191,1.8162 -1.4004,3.27734 -0.82848,1.46114 -1.8268,3.09535 -2.81445,4.54688 -0.98764,1.45154 -1.98827,2.75381 -2.76367,3.8457 -0.19385,0.27297 -0.37301,0.53295 -0.53516,0.77148 -0.85486,-0.18604 -1.7152,-0.36575 -2.50976,-0.46875 -0.91644,-0.1188 -1.66876,-0.11914 -2.35938,-0.11914 h -1.99414 c -0.59853,0 -1.09414,-0.004 -1.54297,0.0371 -0.44882,0.0408 -0.80056,0.14878 -1.08398,0.23828 -0.28342,0.0895 -0.7624,0.23027 -1.27734,0.49805 -0.51495,0.26777 -0.93051,0.58703 -1.29883,0.86328 -0.51149,0.39014 -0.65293,1.09983 -0.33008,1.65625 -0.0317,0.0828 -0.0968,0.19508 -0.40039,0.63672 -0.46807,0.68082 -1.49066,2.03128 -2.37891,3.82422 -0.88825,1.79294 -1.60915,3.94542 -2.1914,6.13281 -0.58226,2.18739 -1.02035,4.40658 -1.31836,6.36719 -0.29802,1.9606 -0.45447,3.64944 -0.53321,4.76758 -0.0394,0.55908 -0.0875,1.0477 0.041,1.63476 0.12853,0.58706 0.55064,1.20358 1.05859,1.56641 1.01591,0.72565 2.27596,1.03257 4.59571,1.82617 2.31974,0.7936 5.69829,1.99023 9.30859,3.25 3.6103,1.25976 7.47394,2.59118 11.72266,3.78516 4.24871,1.19399 8.85303,2.24467 12.85937,2.95898 4.00634,0.71431 7.41884,1.0912 10.51172,1.1543 3.09288,0.0631 5.84741,-0.18937 8.37109,-0.61524 2.52369,-0.42587 4.8217,-1.02581 6.96094,-1.68164 2.13925,-0.65582 4.11258,-1.35799 5.33008,-1.91601 0.60875,-0.27901 1.22321,-0.61952 1.64648,-1.24219 0.42328,-0.62267 0.55486,-1.28512 0.69336,-2.14063 0.27702,-1.71095 0.54908,-4.60301 0.62891,-6.45507 0.0798,-1.85206 -0.0626,-2.69236 -0.19727,-3.58985 -0.13462,-0.89749 -0.29062,-2.15938 -0.66992,-3.41797 -0.3793,-1.25858 -0.96195,-2.42282 -1.6914,-3.47461 -0.72946,-1.05178 -1.61931,-2.00359 -2.75977,-2.96484 -1.14046,-0.96125 -2.61835,-1.99755 -4.88281,-3.02539 -2.26447,-1.02785 -5.26128,-2.0433 -8.33789,-3.05859 -1.03453,-0.3414 -2.05007,-0.66186 -3.06836,-0.98633 0.11734,-1.61154 0.23264,-3.31586 -0.0977,-5.06641 -0.28267,-1.49815 -0.87499,-2.94289 -1.76758,-4.12695 0.008,-0.0811 0.009,-0.16288 0.002,-0.24414 -0.0307,-0.30694 -0.0562,-0.56473 -0.0859,-1.23438 -0.0298,-0.66965 -0.0585,-1.71171 -0.002,-2.64453 0.0565,-0.93282 0.2153,-1.90542 0.23242,-3.03515 0.0171,-1.12973 -0.11671,-2.29524 -0.36719,-3.41407 -0.25048,-1.11883 -0.6215,-2.19874 -1.12891,-3.23046 -0.5074,-1.03172 -1.13712,-1.98592 -1.89453,-3.02735 -0.7574,-1.04143 -1.66509,-2.20027 -2.59961,-3.27734 -0.93452,-1.07708 -1.95603,-2.13183 -3.46679,-3.19922 -1.3815,-0.97606 -3.11072,-1.93733 -4.85157,-2.89258 3.89613,-2.58908 7.65118,-5.43592 10.92774,-8.40625 6.50159,-5.89394 11.05635,-12.24714 14.84961,-19.39844 0.97363,1.07976 1.8971,2.1308 2.57812,3.16407 0.75389,1.14383 1.23353,2.25935 1.4336,3.63476 0.10003,0.6877 0.1293,1.5283 0.23242,2.37305 0.20677,0.98597 -0.28598,1.92493 -0.52735,2.88281 -0.27422,1.1883 -0.50246,2.61228 -0.77148,3.74219 -0.26902,1.1299 -0.57848,2.00958 -1.01172,2.98437 -0.43324,0.9748 -0.95007,1.95693 -1.79687,3.06836 -0.84681,1.11144 -2.01675,2.33715 -3.69727,3.58399 -1.68052,1.24683 -3.96468,2.54784 -5.55859,3.88672 -1.59392,1.33889 -2.41386,2.83116 -2.6211,4.41992 -0.20723,1.58876 0.0525,3.27659 0.58399,4.70508 0.53153,1.4285 1.42892,2.62296 2.73242,3.52539 1.30349,0.90242 2.93737,1.56992 4.42187,1.83984 1.48452,0.26991 3.0664,-0.0205 4.26758,-1.12891 0.42669,-0.39371 0.81186,-0.85231 1.17383,-1.34961 0.30432,1.64976 0.7245,3.53203 1.25977,5.45899 0.73107,2.63187 1.66703,5.32625 2.79882,7.70898 1.1318,2.38274 2.42394,4.46663 4.08204,5.7793 1.65809,1.31267 3.56754,1.59986 5.38476,1.50586 1.81723,-0.094 3.73061,-0.51968 5.44336,-1.06055 1.71275,-0.54087 3.2685,-1.22459 4.85352,-2.23047 1.58502,-1.00587 3.25729,-2.36192 4.63476,-4.20898 1.37748,-1.84707 2.42854,-4.15466 3.00586,-6.98047 0.57732,-2.82581 0.69085,-6.17415 0.15625,-9.88672 -0.5346,-3.71257 -1.7053,-7.75713 -3.32031,-11.13672 -1.61502,-3.37959 -3.63485,-5.98462 -5.23633,-8.07226 -2.96497,-2.90969 -3.25793,-4.65959 -3.22852,-8.35742 1e-5,-1.67252 -0.23057,-3.39942 -0.62695,-4.72071 -0.39638,-1.32129 -0.7165,-2.03652 -0.7207,-1.94922 -0.002,0.0437 0.0552,-0.16274 0.19336,-0.56836 0.13818,-0.40561 0.29908,-1.05152 0.15429,-1.77539 -0.28953,-1.44775 -1.26801,-2.53076 -2.5625,-4.19921 -1.29448,-1.66845 -3.04471,-3.89665 -5.04687,-5.7168 -2.00217,-1.82016 -4.14518,-3.12278 -6.20703,-4.38281 -0.16841,-0.0972 -0.35679,-0.15464 -0.55078,-0.16797 1.27215,-3.69017 2.36164,-7.48261 3.14258,-11.35938 1.74502,-8.66271 2.11821,-17.60207 1.43164,-25.2793 -0.68657,-7.6772 -2.45441,-14.11139 -5.56641,-21.14453 -3.112,-7.03313 -7.5818,-14.725804 -13.47461,-22.355465 -5.89249,-7.629613 -13.16137,-15.142 -20.64616,-22.933544 C 145.61287,53.977988 137.88918,45.886944 131.6543,38.857422 125.41941,31.8279 120.69188,25.877458 117.20117,19.798828 113.71046,13.720203 111.40222,7.4172252 109.07031,1.0351562 108.83045,0.45597304 108.20565,0.13654027 107.5957,0.28125 c -0.004,-0.002626 -0.008,-0.00523 -0.0117,-0.007813 -0.0254,5.434e-4 -0.0508,0.001846 -0.0762,0.003906 -0.0254,-0.00206 -0.0508,-0.003363 -0.0762,-0.003906 z m 0.0762,3.8984375 c 2.07708,5.6433353 4.27834,11.32574 7.47852,16.898437 3.62785,6.317434 8.47387,12.395639 14.75781,19.480469 6.28394,7.08483 14.02305,15.192701 21.51172,22.988281 7.48867,7.795586 14.70193,15.258072 20.46875,22.72461 5.76682,7.466539 10.13356,14.992408 13.1582,21.828128 3.02465,6.83571 4.69395,12.91889 5.35742,20.33789 0.66348,7.419 0.30092,16.15161 -1.39062,24.54883 -1.69154,8.39721 -4.71943,16.515 -8.47266,23.71875 -3.75322,7.20375 -8.18991,13.43696 -14.63672,19.28125 -6.44681,5.84428 -14.96654,11.32606 -22.5957,15.08007 -7.62916,3.75402 -14.37655,5.79722 -20.32031,6.75782 -5.94376,0.96059 -11.11624,0.84179 -14.2793,0.84179 -0.47608,0 -0.6476,0.0199 -1.03711,0.0254 -0.38968,-0.006 -0.56076,-0.0254 -1.03711,-0.0254 -3.16306,0 -8.335531,0.1188 -14.279294,-0.84179 -5.94376,-0.9606 -12.691152,-3.0038 -20.320312,-6.75782 -7.629158,-3.75401 -16.148892,-9.23579 -22.595703,-15.08007 -6.446809,-5.84429 -10.883493,-12.0775 -14.636719,-19.28125 -3.753225,-7.20375 -6.781117,-15.32154 -8.472656,-23.71875 -1.691539,-8.39722 -2.054103,-17.12983 -1.390625,-24.54883 0.663477,-7.419 2.332778,-13.50218 5.357421,-20.33789 3.024643,-6.83572 7.391379,-14.361589 13.158204,-21.828128 5.766823,-7.466538 12.98008,-14.929026 20.46875,-22.72461 7.488669,-7.79558 15.227776,-15.903451 21.511718,-22.988281 6.283943,-7.08483 11.129957,-13.163035 14.757816,-19.480469 3.20023,-5.572796 5.4014,-11.2550034 7.47851,-16.898437 z M 56.736328,88.439453 c -3.479174,0.109399 -7.099647,1.006471 -10.070312,2.753906 -3.395057,1.997076 -5.697073,4.977943 -7.90625,7.800782 -0.434836,0.555485 -0.336886,1.358329 0.21875,1.792969 0.555485,0.43484 1.358325,0.33689 1.792968,-0.21875 2.209178,-2.822842 4.325094,-5.488925 7.189454,-7.173829 2.864372,-1.68491 6.719355,-2.515484 10.171874,-2.40039 3.452529,0.115093 6.624713,1.159355 10.044922,2.380859 3.42021,1.221504 6.875724,2.552053 9.503907,4.4375 2.628186,1.88545 4.642068,4.46786 6.728515,7.16797 0.431099,0.55941 1.234408,0.66267 1.792969,0.23047 0.558778,-0.43169 0.66115,-1.23492 0.228516,-1.79297 -2.086448,-2.70011 -4.244188,-5.516878 -7.261719,-7.681642 -3.017535,-2.164767 -6.679954,-3.534414 -10.132813,-4.767578 -3.452858,-1.233165 -6.908848,-2.396951 -10.820312,-2.527344 -0.488934,-0.0163 -0.983444,-0.01758 -1.480469,-0.002 z m 96.031252,0 c -0.49703,-0.01563 -0.99154,-0.01435 -1.48047,0.002 -3.91146,0.130393 -7.36746,1.294179 -10.82031,2.527344 -3.45286,1.233164 -7.11528,2.602811 -10.13282,4.767578 -3.01753,2.164764 -5.17527,4.981535 -7.26171,7.681645 -0.43264,0.55805 -0.33027,1.36128 0.22851,1.79297 0.55856,0.4322 1.36187,0.32894 1.79297,-0.23047 2.08645,-2.70011 4.10033,-5.282523 6.72852,-7.167973 2.62818,-1.885447 6.08369,-3.215996 9.5039,-4.4375 3.42021,-1.221504 6.5924,-2.265766 10.04492,-2.380859 3.45253,-0.115094 7.30751,0.71548 10.17188,2.40039 2.86436,1.684904 4.98027,4.350987 7.18945,7.173832 0.43464,0.55564 1.23748,0.65359 1.79297,0.21875 0.55564,-0.43464 0.65359,-1.237487 0.21875,-1.792972 -2.20918,-2.822839 -4.51119,-5.803706 -7.90625,-7.800782 -2.97066,-1.747435 -6.59114,-2.644507 -10.07031,-2.753906 z M 53.945312,119.875 c -1.411673,0.041 -2.757112,0.20972 -3.990234,0.51172 -3.28832,0.80531 -5.58977,2.5761 -7.484375,4.28125 -1.894604,1.70515 -3.539722,3.42448 -4.427734,4.97851 -0.444005,0.77702 -0.704615,1.67791 -0.632813,2.61133 0.0718,0.93343 0.376388,1.86366 0.845703,3.17774 0.938631,2.62816 2.673349,7.05065 5.644532,10.41797 2.971174,3.3673 7.001356,5.42645 11.039062,6.58007 4.037702,1.15362 8.155587,1.4062 12.644531,0.90039 4.488943,-0.5058 9.311878,-1.74743 12.195313,-2.625 1.441717,-0.43878 2.462877,-0.76108 3.306641,-1.41992 0.843765,-0.65883 1.257767,-1.80209 1.21875,-2.85547 -0.07804,-2.10673 -1.147121,-4.94802 -3.095704,-8.59375 -1.948581,-3.64572 -4.811892,-8.03393 -8.30664,-11.20507 -3.494746,-3.17114 -7.516089,-4.98366 -11.546875,-5.94336 -2.015392,-0.47985 -4.043418,-0.75753 -5.978516,-0.81446 -0.483774,-0.0142 -0.961082,-0.0156 -1.431641,-0.002 z m 104.392578,0 c -0.47056,-0.0137 -0.94982,-0.0123 -1.43359,0.002 -1.9351,0.0569 -3.96313,0.33461 -5.97852,0.81446 -4.03078,0.9597 -8.05213,2.77222 -11.54687,5.94336 -3.49475,3.17114 -6.35806,7.55935 -8.30664,11.20507 -1.94859,3.64573 -3.01767,6.48702 -3.09571,8.59375 -0.039,1.05338 0.37499,2.19664 1.21875,2.85547 0.84377,0.65884 1.86493,0.98114 3.30664,1.41992 2.88344,0.87757 7.70637,2.1192 12.19532,2.625 4.48894,0.50581 8.60682,0.25323 12.64453,-0.90039 4.0377,-1.15362 8.06789,-3.21277 11.03906,-6.58007 2.97118,-3.36732 4.7059,-7.78981 5.64453,-10.41797 0.46932,-1.31408 0.7739,-2.24431 0.8457,-3.17774 0.0718,-0.93342 -0.1888,-1.83431 -0.63281,-2.61133 -0.88801,-1.55403 -2.53313,-3.27336 -4.42773,-4.97851 -1.89461,-1.70515 -4.19606,-3.47594 -7.48438,-4.28125 -1.23312,-0.302 -2.5766,-0.47072 -3.98828,-0.51172 z m -104.326171,2.56445 c 0.419262,-0.0115 0.848446,-0.0107 1.285156,0.002 1.746841,0.0505 3.616087,0.29373 5.466797,0.73437 3.701416,0.88128 7.289008,2.50684 10.421875,5.34961 3.132863,2.84277 5.915314,7.04475 7.771484,10.51758 1.85617,3.47282 2.750209,6.27728 2.794922,7.48437 0.02236,0.60354 0.03788,0.53437 -0.238281,0.75 -0.276158,0.21564 -1.097387,0.56797 -2.478516,0.98828 -2.476297,0.75366 -6.547365,1.80427 -10.408203,2.35743 4.323567,-1.73952 7.394528,-5.87376 7.394531,-10.70899 2e-6,-6.41017 -5.396816,-11.58594 -11.955078,-11.58594 -6.558261,0 -11.955079,5.17577 -11.955078,11.58594 4e-6,5.0673 3.372646,9.36337 8.025391,10.94141 -1.523541,-0.16721 -3.012911,-0.45375 -4.494141,-0.87695 -3.694494,-1.05557 -7.274323,-2.92239 -9.826172,-5.81446 -2.551839,-2.89206 -4.253897,-7.0613 -5.15625,-9.58789 -0.451176,-1.26329 -0.667537,-2.05298 -0.703125,-2.51562 -0.03559,-0.46265 0.01035,-0.63481 0.302735,-1.14649 0.58477,-1.02335 2.130573,-2.739 3.917968,-4.34765 1.787394,-1.60866 3.65917,-3.03172 6.384766,-3.69922 1.022096,-0.25031 2.191431,-0.39331 3.449219,-0.42774 z m 104.257811,0 c 1.25779,0.0344 2.42712,0.17743 3.44922,0.42774 2.7256,0.6675 4.59737,2.09056 6.38477,3.69922 1.78739,1.60865 3.33319,3.3243 3.91796,4.34765 0.29239,0.51168 0.33833,0.68384 0.30274,1.14649 -0.0356,0.46264 -0.25195,1.25233 -0.70313,2.51562 -0.90235,2.52659 -2.60441,6.69583 -5.15625,9.58789 -2.55185,2.89207 -6.13167,4.75889 -9.82617,5.81446 -1.5007,0.42876 -3.01016,0.71477 -4.55469,0.88086 4.66151,-1.57334 8.04297,-5.87187 8.04297,-10.94532 0,-6.41017 -5.39681,-11.58592 -11.95507,-11.58594 -6.55825,2e-5 -11.95313,5.17577 -11.95313,11.58594 1e-5,4.82936 3.06222,8.95796 7.37695,10.70117 -3.84326,-0.5554 -7.88593,-1.59979 -10.34961,-2.34961 -1.38113,-0.42033 -2.20235,-0.77264 -2.47851,-0.98828 -0.27616,-0.21563 -0.26064,-0.14646 -0.23828,-0.75 0.0447,-1.20709 0.93875,-4.01155 2.79492,-7.48437 1.85617,-3.47283 4.63862,-7.67481 7.77148,-10.51758 3.13287,-2.84277 6.72046,-4.46833 10.42188,-5.34961 1.85071,-0.44064 3.71995,-0.68387 5.4668,-0.73437 0.43671,-0.0126 0.86589,-0.0134 1.28515,-0.002 z m -94.203124,8.75782 c 5.061684,0 9.083986,3.91372 9.083985,8.71679 -4e-6,4.80307 -4.022305,8.7168 -9.083985,8.7168 -5.06168,0 -9.085933,-3.91373 -9.085937,-8.7168 -10e-7,-4.80307 4.024254,-8.71679 9.085937,-8.71679 z m 84.105474,0 c 5.06168,0 9.08593,3.91372 9.08593,8.71679 0,4.80307 -4.02426,8.7168 -9.08593,8.7168 -5.06167,0 -9.08399,-3.91373 -9.08399,-8.7168 0,-4.80307 4.02231,-8.71679 9.08399,-8.71679 z m -41.98829,19.32812 c -1.17991,0.0165 -2.38486,0.15014 -3.55664,0.41797 -2.34356,0.53566 -4.551289,1.60467 -6.078122,3.34961 -1.526842,1.74494 -2.159775,3.89565 -2.773437,5.85937 -0.210268,0.67309 0.164841,1.38921 0.83789,1.59961 0.67309,0.21027 1.389209,-0.16484 1.59961,-0.83789 0.613662,-1.96372 1.209193,-3.73881 2.259765,-4.93945 1.050582,-1.20065 2.770554,-2.09483 4.722654,-2.54102 1.95211,-0.44619 4.14008,-0.44773 5.92383,-0.11328 1.78375,0.33446 3.24714,1.00512 4.49024,1.65625 1.24307,0.65114 2.05321,1.17318 2.69531,1.91406 0.6421,0.74091 1.23595,1.88206 1.84961,3.10938 0.31568,0.63029 1.08238,0.88557 1.71289,0.57031 0.63029,-0.31568 0.88557,-1.08238 0.57031,-1.71289 -0.61366,-1.22732 -1.24775,-2.54052 -2.20117,-3.64062 -0.95343,-1.10012 -2.10709,-1.80498 -3.44141,-2.50391 -1.33432,-0.69893 -3.06137,-1.50039 -5.20508,-1.90234 -1.07185,-0.20098 -2.22633,-0.30168 -3.40625,-0.28516 z m -79.074215,15.26172 c 1.134673,3.1817 2.455827,6.23574 3.875,9.19531 -0.971069,1.07583 -1.951157,2.18923 -2.755859,3.41016 -0.907072,1.37624 -1.569987,2.8972 -1.828125,4.67187 -0.646284,3.36529 0.371484,6.68337 1.109375,9.95703 0.303719,1.27563 0.678965,2.34459 1.162109,3.43164 0.483145,1.08708 1.113643,2.28209 2.099609,3.57618 0.985968,1.29408 2.336552,2.70206 4.207032,4.08984 1.870481,1.38778 4.167675,2.72241 5.4375,3.78906 1.269823,1.06665 1.594047,1.74909 1.730468,2.79492 0.136421,1.04587 -0.06046,2.45008 -0.445312,3.48438 -0.384853,1.0343 -0.862775,1.67242 -1.792969,2.31641 -0.930194,0.64398 -2.388256,1.23749 -3.423828,1.42578 -1.035566,0.18829 -1.40134,0.1341 -2.080078,-0.49219 -0.638309,-0.58898 -1.49767,-1.96119 -2.351563,-3.42188 0.07869,-0.8989 0.117591,-1.69286 0.150391,-2.44726 0.03107,-0.70504 -0.515639,-1.3016 -1.220703,-1.33203 -0.704288,-0.03 -1.299636,0.51643 -1.330078,1.2207 -0.05727,1.31729 -0.11123,2.56105 -0.388672,4.41992 -0.277442,1.85887 -0.783594,4.34047 -1.484375,6.86328 -0.700781,2.52282 -1.599907,5.09766 -2.644531,7.29688 -1.044624,2.19922 -2.270252,4.00927 -3.361328,4.87305 -0.084,0.0665 -0.167994,0.12119 -0.251954,0.17968 -0.109528,-0.57444 -0.217447,-1.18175 -0.326172,-1.96093 -0.166954,-1.19651 -0.327338,-2.69575 -0.21875,-4.65039 0.108589,-1.95465 0.497426,-4.42375 1.089844,-7.16016 0.592418,-2.73641 1.389577,-5.75746 2.191406,-8.79297 0.179989,-0.68171 -0.226569,-1.38029 -0.908203,-1.56055 -0.681708,-0.17999 -1.380288,0.22657 -1.560547,0.90821 -0.801832,3.03551 -1.608409,6.0851 -2.21875,8.90429 -0.610338,2.8192 -1.022074,5.39144 -1.142578,7.56055 -0.120503,2.1691 0.06159,3.87629 0.238282,5.14258 0.135683,0.97239 0.271651,1.70535 0.40625,2.39258 -0.303265,0.0134 -0.621818,0.0119 -0.964844,-0.006 -0.306321,-0.0158 -0.628125,-0.0507 -0.951172,-0.0898 -0.152364,-0.57526 -0.305251,-1.15556 -0.453125,-1.68359 -0.184763,-0.65976 -0.344422,-1.19041 -0.595703,-2.2793 -0.251281,-1.08888 -0.585039,-2.70569 -0.748047,-4.30859 -0.163008,-1.6029 -0.164226,-3.21541 0.05469,-5.07617 0.218912,-1.86076 0.666135,-3.9773 1.236329,-5.74219 0.570192,-1.76489 1.280831,-3.24658 2.02539,-4.79297 0.306428,-0.63534 0.0397,-1.39879 -0.595703,-1.70508 -0.305364,-0.14711 -0.656685,-0.16678 -0.976562,-0.0547 -0.319775,0.11217 -0.581853,0.34684 -0.728516,0.65234 -0.744559,1.54639 -1.52173,3.15728 -2.154297,5.11523 -0.632565,1.95795 -1.102518,4.19463 -1.341797,6.22852 -0.239279,2.03389 -0.241184,3.85653 -0.06055,5.63281 0.180641,1.77628 0.536595,3.4802 0.800782,4.625 0.264186,1.14481 0.447764,1.75971 0.625,2.39258 0.03831,0.13679 0.07997,0.30354 0.11914,0.44727 -0.360448,-0.0959 -0.718909,-0.19753 -1.064453,-0.30664 -0.191064,-0.0603 -0.368481,-0.12803 -0.552734,-0.19141 -0.03655,-0.14215 -0.09734,-0.27694 -0.179688,-0.39844 -0.859109,-1.26003 -1.710793,-2.51128 -2.470703,-3.69336 -0.7599096,-1.18208 -1.3640189,-2.1952 -1.7714842,-3.54492 -0.4074644,-1.34971 -0.6328103,-3.11324 -0.6328126,-5.67383 -2.1e-6,-2.56058 0.2259833,-5.92749 0.4550782,-9.30664 0.047082,-0.70317 -0.4843786,-1.31155 -1.1875,-1.35937 -0.7031729,-0.0471 -1.3115566,0.48438 -1.359375,1.1875 -0.2290949,3.37915 -0.462893,6.76987 -0.4628906,9.47851 2.4e-6,2.70864 0.2332578,4.7263 0.7421874,6.41211 0.5089285,1.68581 1.2818585,2.96406 2.0683594,4.1875 0.076032,0.11827 0.1608724,0.24031 0.2382813,0.35938 -1.1047876,-0.7964 -2.1886837,-1.77205 -3.0957031,-2.98829 -1.1425987,-1.5321 -2.0398799,-3.46219 -2.5507813,-5.96289 -0.5109006,-2.50069 -0.6252281,-5.56695 -0.1289063,-9.01367 0.4963216,-3.44672 1.617915,-7.306 3.0957032,-10.39844 1.4777866,-3.09242 3.3511402,-5.52574 4.9570316,-7.61914 3.849332,-3.65894 3.974931,-5.53162 3.757812,-9.9121 -2e-6,-1.42028 0.228625,-3.01664 0.519531,-3.98633 0.290905,-0.96969 0.885644,-1.51457 0.824219,-2.80469 -0.03071,-0.64506 -0.244367,-1.02561 -0.328125,-1.27148 -0.08376,-0.24587 -0.09345,-0.31593 -0.06641,-0.45118 0.05409,-0.27047 0.793311,-1.47934 2.076172,-3.13281 1.282861,-1.65346 2.968153,-3.77626 4.746094,-5.39258 1.572929,-1.42994 3.310746,-2.54697 5.117187,-3.6582 z m 160.279295,1.36523 c 0.0134,0.0127 0.0271,0.025 0.041,0.0371 2.06185,1.26002 4.04433,2.47744 5.82226,4.09375 1.77794,1.61632 3.46324,3.73912 4.7461,5.39258 1.28286,1.65347 2.02208,2.86234 2.07617,3.13281 0.027,0.13525 0.0173,0.20531 -0.0664,0.45118 -0.0838,0.24588 -0.29741,0.62642 -0.32812,1.27148 -0.0614,1.29012 0.53331,1.835 0.82422,2.80469 0.2909,0.96969 0.51953,2.56605 0.51953,3.98633 -0.97476,4.2678 1.21879,6.59734 3.75781,9.91211 1.60589,2.09338 3.47924,4.52672 4.95703,7.61914 1.47779,3.09243 2.59938,6.95171 3.0957,10.39843 0.49633,3.44672 0.382,6.513 -0.1289,9.01367 -0.5109,2.5007 -1.40818,4.43079 -2.55078,5.9629 -0.90666,1.21574 -1.98943,2.19205 -3.09375,2.98828 0.0771,-0.11868 0.16054,-0.24149 0.23633,-0.35938 0.7865,-1.22344 1.55943,-2.50169 2.06835,-4.1875 0.50893,-1.68581 0.74219,-3.70347 0.74219,-6.41211 0,-2.70864 -0.23379,-6.09936 -0.46289,-9.47851 -0.0478,-0.70312 -0.6562,-1.23458 -1.35937,-1.1875 -0.70312,0.0478 -1.23458,0.6562 -1.1875,1.35937 0.22909,3.37915 0.45508,6.74606 0.45507,9.30664 0,2.56059 -0.22534,4.32412 -0.63281,5.67383 -0.40746,1.34972 -1.01157,2.36284 -1.77148,3.54492 -0.75991,1.18208 -1.6116,2.43333 -2.47071,3.69336 -0.078,0.1217 -0.13482,0.25577 -0.16796,0.39649 -0.18782,0.0647 -0.36957,0.13181 -0.56446,0.19336 -0.34554,0.10911 -0.704,0.21075 -1.06445,0.30664 0.0392,-0.14373 0.0808,-0.31048 0.11914,-0.44727 0.17724,-0.63287 0.36081,-1.24777 0.625,-2.39258 0.26419,-1.1448 0.62014,-2.84872 0.80078,-4.625 0.18064,-1.77628 0.17873,-3.59892 -0.0606,-5.63281 -0.23927,-2.03389 -0.70923,-4.27057 -1.34179,-6.22852 -0.63257,-1.95795 -1.40974,-3.56884 -2.1543,-5.11523 -0.14666,-0.3055 -0.40874,-0.54017 -0.72852,-0.65234 -0.31988,-0.1121 -0.6712,-0.0924 -0.97656,0.0547 -0.6354,0.30629 -0.90213,1.06974 -0.5957,1.70508 0.74456,1.54639 1.4552,3.02808 2.02539,4.79297 0.57019,1.76489 1.01742,3.88143 1.23633,5.74219 0.21891,1.86076 0.21769,3.47327 0.0547,5.07617 -0.16301,1.6029 -0.49677,3.21971 -0.74805,4.30859 -0.25128,1.08889 -0.41094,1.61954 -0.5957,2.2793 -0.14788,0.52803 -0.30077,1.10833 -0.45313,1.68359 -0.32305,0.0391 -0.64485,0.074 -0.95117,0.0899 -0.34374,0.0178 -0.66297,0.0213 -0.9668,0.008 0.13473,-0.68777 0.27239,-1.42117 0.4082,-2.39453 0.1767,-1.26629 0.35879,-2.97348 0.23829,-5.14258 -0.12051,-2.16911 -0.53224,-4.74135 -1.14258,-7.56055 -0.61034,-2.81919 -1.41692,-5.86878 -2.21875,-8.90429 -0.18026,-0.68164 -0.87884,-1.0882 -1.56055,-0.90821 -0.68163,0.18026 -1.08819,0.87884 -0.9082,1.56055 0.80183,3.03551 1.59899,6.05656 2.1914,8.79297 0.59242,2.73641 0.98126,5.20551 1.08985,7.16016 0.10859,1.95464 -0.0518,3.45388 -0.21875,4.65039 -0.10873,0.77923 -0.21859,1.38646 -0.32813,1.96093 -0.0835,-0.0582 -0.16643,-0.11352 -0.25,-0.17968 -1.09107,-0.86378 -2.3167,-2.67383 -3.36132,-4.87305 -1.04463,-2.19922 -1.94376,-4.77405 -2.64454,-7.29688 -0.70078,-2.52281 -1.20693,-5.00441 -1.48437,-6.86328 -0.27744,-1.85887 -0.3314,-3.10263 -0.38867,-4.41992 -0.0304,-0.70427 -0.62579,-1.25066 -1.33008,-1.2207 -0.70506,0.0304 -1.25177,0.62699 -1.2207,1.33203 0.0328,0.7544 0.0717,1.54836 0.15039,2.44727 -0.8539,1.46068 -1.71326,2.83289 -2.35157,3.42187 -0.67873,0.62629 -1.04451,0.68048 -2.08007,0.49219 -1.03558,-0.18829 -2.49364,-0.7818 -3.42383,-1.42578 -0.9302,-0.64399 -1.40812,-1.28211 -1.79297,-2.31641 -0.38485,-1.0343 -0.58173,-2.43851 -0.44531,-3.48437 0.13642,-1.04586 0.46064,-1.72828 1.73046,-2.79493 1.26983,-1.06665 3.56704,-2.40128 5.4375,-3.78906 1.87049,-1.38778 3.22107,-2.79576 4.20704,-4.08984 0.98596,-1.29409 1.61646,-2.48909 2.09961,-3.57617 0.48314,-1.08707 0.85839,-2.15602 1.16211,-3.43164 0.82127,-3.47906 1.49632,-6.32513 1.10937,-9.95709 -0.25814,-1.77467 -0.92103,-3.29563 -1.82813,-4.67187 -0.90706,-1.37624 -2.03875,-2.61756 -3.12695,-3.82031 -0.11267,-0.1243 -0.24872,-0.22518 -0.40039,-0.29688 1.42494,-2.87518 2.74061,-5.86215 3.90039,-8.96094 z m -105.785154,6.11719 c -0.332698,-0.0615 -0.676198,0.0116 -0.955078,0.20313 -0.581361,0.39914 -0.729134,1.19397 -0.330079,1.77539 1.582228,2.30142 18.904975,19.61142 26.123051,20.12695 2.93085,0.20933 6.1074,-0.72194 8.61328,-1.75 2.50587,-1.02805 4.33007,-2.19974 5.72851,-3.2168 1.39845,-1.01705 2.44367,-1.92999 3.4043,-2.89062 0.78129,-0.78129 1.50088,-1.59092 2.20703,-2.39453 3.13669,-0.93568 4.91898,-2.51643 6.10156,-4.22461 1.21508,-1.75512 1.9765,-3.69027 2.71289,-5.53125 0.26213,-0.65476 -0.0562,-1.39805 -0.71093,-1.66016 -0.6553,-0.26192 -1.39882,0.0573 -1.66016,0.71289 -0.73639,1.84098 -1.44729,3.58749 -2.44141,5.02344 -1.80924,2.61337 -4.3259,4.19979 -17.58984,4.66795 -5.18299,0.18293 -10.89171,0.16889 -15.371093,-0.65625 -4.479383,-0.82514 -7.856797,-2.46927 -10.142578,-4.1836 -2.285775,-1.71432 -3.519089,-3.50699 -4.869141,-5.4707 -0.192177,-0.27885 -0.487249,-0.46994 -0.820312,-0.53125 z m 14.273437,12.46485 c 0.362746,0.0798 0.719627,0.16314 1.095703,0.23242 4.848364,0.89311 10.674504,0.88058 15.923824,0.69531 3.36772,-0.11886 6.50286,-0.3061 9.19336,-0.66797 -0.79563,0.77262 -1.64822,1.5057 -2.80859,2.34961 -1.30168,0.94668 -2.91459,1.98229 -5.19531,2.91797 -2.28072,0.93568 -5.23894,1.7233 -7.46289,1.56445 -2.22395,-0.15884 -4.03739,-1.197 -6.16407,-2.91015 -1.456642,-1.17342 -3.004367,-2.63341 -4.582027,-4.18164 z m 26.642577,11.44921 c -0.16733,0.0123 -0.33059,0.0574 -0.48047,0.13282 l -3.31445,1.65625 c -1.35007,0.67503 -2.91216,1.46152 -5.67188,2.10742 -2.7597,0.64589 -6.73649,1.10303 -9.64062,0.65625 -2.90411,-0.44678 -5.035277,-1.78112 -7.367188,-3.25391 -0.596493,-0.37657 -1.385324,-0.19816 -1.761719,0.39844 -0.37657,0.59649 -0.198164,1.38532 0.398438,1.76172 2.331911,1.47278 4.863751,3.08407 8.341799,3.61914 3.47802,0.53507 7.60259,0.009 10.61133,-0.69531 3.00873,-0.70418 4.88235,-1.63357 6.23242,-2.3086 l 3.3125,-1.6582 c 0.63103,-0.31498 0.88724,-1.08186 0.57226,-1.71289 -0.15139,-0.30301 -0.41696,-0.53345 -0.73828,-0.64063 -0.15901,-0.0531 -0.32692,-0.0743 -0.49414,-0.0625 z m 31.77539,10.48438 c 0.10787,0.24145 0.28804,0.44345 0.51563,0.57812 1.90301,1.04359 3.78263,2.08011 5.0957,3.00782 1.31307,0.92772 2.13334,1.777 3.00977,2.78711 0.87642,1.01012 1.74894,2.12109 2.46484,3.10546 0.7159,0.98437 1.2526,1.81173 1.66602,2.65235 0.4134,0.84061 0.71781,1.72444 0.92773,2.66211 0.20992,0.93766 0.32217,1.92033 0.30859,2.8164 -0.0136,0.89607 -0.16227,1.82696 -0.22851,2.91993 -0.0454,0.74817 -0.0387,1.45383 -0.0234,2.08398 -0.82386,-0.39535 -1.70391,-0.63763 -2.58789,-0.74219 -1.6567,-0.19595 -3.33318,0.0563 -5.00781,0.54883 -1.67464,0.49254 -3.39612,1.24144 -5.00196,2.22461 -1.60583,0.98317 -3.05286,2.17487 -4.27539,3.36523 -1.22252,1.19036 -2.21201,2.36928 -2.89453,3.2793 -0.68251,0.91002 -1.07162,1.58168 -1.40625,2.20313 -0.32578,0.60502 -0.71109,1.33875 -0.84961,2.26367 -0.14052,-0.045 -0.28775,-0.089 -0.44531,-0.13086 -1.10267,-0.2929 -2.60637,-0.53307 -3.67383,-0.72852 -0.53305,-0.0976 -0.97801,-0.18729 -1.47461,-0.27734 h -0.002 c -0.12044,-0.24787 -0.2259,-0.47992 -0.30078,-0.71289 -0.10199,-0.31728 -0.16513,-0.65906 -0.1543,-1.04883 0.0108,-0.38977 0.13492,-0.94374 0.20117,-1.10937 0.0662,-0.16562 0.1418,-0.20122 0.53125,-0.75 0.38946,-0.54878 0.85148,-1.30605 1.58008,-2.33204 0.7286,-1.02599 1.75481,-2.36289 2.79297,-3.88867 1.03816,-1.52578 2.06609,-3.20647 2.92578,-4.72265 0.85969,-1.51617 1.66228,-2.88034 1.73047,-4.42578 0.0682,-1.54548 -0.82664,-2.67798 -1.70313,-3.66602 -0.87648,-0.98804 -1.99855,-2.14119 -3.14062,-3.23633 -0.80571,-0.77259 -1.61276,-1.50404 -2.41797,-2.22656 0.61085,-0.28434 1.19309,-0.51261 1.81445,-0.81836 3.26903,-1.60857 6.67002,-3.5662 10.02344,-5.68164 z m -91.968748,0.99023 c 2.829987,1.71985 5.670548,3.33951 8.417969,4.69141 1.208366,0.59459 2.360625,1.07514 3.529297,1.58984 -0.676542,0.61063 -1.353134,1.23053 -2.029297,1.87891 -1.142075,1.09514 -2.264139,2.24829 -3.140625,3.23633 -0.876486,0.98804 -1.771319,2.12053 -1.703125,3.66601 0.06819,1.54547 0.87078,2.90961 1.730468,4.42578 0.859688,1.51618 1.887621,3.19688 2.925782,4.72266 1.03816,1.52578 2.064368,2.86268 2.792968,3.88867 0.728601,1.02599 1.190619,1.78325 1.580079,2.33203 0.389458,0.54878 0.465001,0.58438 0.53125,0.75 0.06625,0.16563 0.190345,0.71961 0.201171,1.10938 0.01083,0.38977 -0.05231,0.73155 -0.154297,1.04883 -0.07488,0.23297 -0.18229,0.46502 -0.302734,0.71289 -0.496597,0.0901 -0.941562,0.17974 -1.474609,0.27734 -1.067459,0.19545 -2.571161,0.43562 -3.673828,0.72852 -0.157557,0.0418 -0.304795,0.0859 -0.445313,0.13086 -0.138517,-0.92492 -0.523827,-1.65865 -0.849609,-2.26368 -0.334631,-0.62145 -0.723738,-1.2931 -1.40625,-2.20312 -0.682514,-0.91002 -1.672005,-2.08894 -2.894531,-3.2793 -1.222528,-1.19036 -2.669553,-2.38206 -4.275391,-3.36523 -1.60584,-0.98317 -3.327318,-1.73207 -5.001953,-2.22461 -1.674638,-0.49254 -3.351118,-0.74478 -5.007813,-0.54883 -0.883985,0.10456 -1.764027,0.34683 -2.58789,0.74219 0.01528,-0.63015 0.02194,-1.33581 -0.02344,-2.08399 -0.06624,-1.09297 -0.214937,-2.02385 -0.228515,-2.91992 -0.01358,-0.89607 0.09867,-1.87874 0.308593,-2.8164 0.209923,-0.93767 0.514317,-1.8215 0.927735,-2.66211 0.413416,-0.84062 0.950112,-1.66798 1.666015,-2.65235 0.715904,-0.98437 1.588421,-2.09535 2.464844,-3.10547 0.876423,-1.01011 1.696695,-1.85939 3.009766,-2.78711 1.313067,-0.92771 3.192693,-1.96422 5.095703,-3.00781 0.0059,-0.004 0.01175,-0.008 0.01758,-0.0117 z m 101.892578,23.36914 c 0.31611,-0.003 0.62437,0.0115 0.92383,0.0469 1.19784,0.14167 2.24965,0.58534 3.0625,1.41016 0.81285,0.8248 1.47659,2.18218 1.74219,3.58984 0.21952,1.16345 0.18645,2.44832 0.0996,3.81055 -1.06991,-0.31918 -2.09117,-0.61039 -2.9629,-0.82227 -2.29638,-0.55814 -3.72629,-0.63684 -4.8125,-0.58594 -1.0862,0.0509 -1.89951,0.22739 -2.60546,0.38086 -0.68936,0.14982 -1.12664,0.83023 -0.97657,1.51953 0.14982,0.68936 0.83023,1.12664 1.51953,0.97657 0.70596,-0.15347 1.30343,-0.28498 2.18164,-0.32618 0.87822,-0.0412 1.96628,0.001 4.08985,0.51758 2.12357,0.51615 5.27961,1.52464 8.3418,2.53516 3.06218,1.01052 6.01866,2.02046 8.08203,2.95703 2.06337,0.93656 3.28681,1.80461 4.29492,2.6543 1.00811,0.8497 1.71431,1.61554 2.30469,2.46679 0.59038,0.85125 1.04973,1.77379 1.3457,2.75586 0.25494,1.73778 1.46991,4.90181 1.61642,4.19005 0.54387,-2.64221 -3.8595,2.08669 -10.30001,3.19472 -3.02815,0.52096 -6.93995,0.26705 -13.14063,-0.4336 -6.20068,-0.70064 -14.63241,-1.82359 -21.60742,-2.91015 -6.97501,-1.08657 -12.51134,-2.14699 -15.88672,-3.19336 -3.37539,-1.04638 -4.4735,-1.95712 -5.21484,-3.09766 -0.74135,-1.14055 -1.08589,-2.65794 -1.4375,-4.3457 -0.0104,-0.0225 -0.0215,-0.0446 -0.0332,-0.0664 0.5376,-1.96107 1.19183,-3.85454 1.91992,-5.32422 0.59356,-1.19808 1.21151,-2.09603 1.73243,-2.83984 0.172,0.32711 0.3876,0.65164 0.67773,0.95703 0.87058,0.91639 2.10249,1.36357 3.78711,1.70703 1.68462,0.34346 3.90435,0.58651 5.3125,0.78125 1.40815,0.19475 2.04248,0.34137 3.1543,0.54492 1.11182,0.20359 2.61482,0.4547 3.47656,0.6836 0.68702,0.18249 0.98989,0.32857 1.31641,0.51953 0.19034,0.59077 0.77789,0.95913 1.39257,0.87305 0.69624,-0.11172 1.17015,-0.76662 1.0586,-1.46289 -0.12278,-0.76734 -0.20449,-1.43508 -0.14844,-1.85547 0.056,-0.42039 0.27013,-0.89119 0.58008,-1.4668 0.30994,-0.57561 0.5965,-1.07007 1.20312,-1.87891 0.60663,-0.80883 1.52065,-1.90142 2.63086,-2.98242 1.11021,-1.08099 2.42595,-2.1591 3.82813,-3.01758 1.40217,-0.85847 2.93252,-1.52289 4.38867,-1.95117 1.09211,-0.32118 2.11418,-0.50127 3.0625,-0.51172 z m -111.318359,0.42383 c 0.948317,0.0105 1.970387,0.19054 3.0625,0.51172 1.456151,0.42828 2.9865,1.0927 4.388671,1.95117 1.402175,0.85848 2.717917,1.93659 3.828126,3.01758 1.110208,1.081 2.024235,2.17359 2.630859,2.98242 0.606625,0.80884 0.89318,1.3033 1.203125,1.87891 0.309945,0.57561 0.524028,1.04641 0.580078,1.4668 0.05605,0.42039 -0.02566,1.08812 -0.148438,1.85546 -0.111553,0.69627 0.362354,1.35117 1.058594,1.46289 0.614676,0.0861 1.202235,-0.28227 1.392578,-0.87304 0.326513,-0.19096 0.629389,-0.33704 1.316407,-0.51953 0.861738,-0.2289 2.36474,-0.48002 3.476562,-0.6836 1.111822,-0.20357 1.74615,-0.35017 3.154297,-0.54492 1.408146,-0.19474 3.627883,-0.43779 5.3125,-0.78125 1.684619,-0.34346 2.916532,-0.79064 3.787109,-1.70703 0.29013,-0.3054 0.505734,-0.62992 0.677735,-0.95703 0.52092,0.74381 1.138874,1.64176 1.732422,2.83984 0.473307,0.95538 0.912247,2.09765 1.3125,3.3125 -0.03453,0.0568 -0.06457,0.11624 -0.08984,0.17774 -0.351617,1.68776 -0.696151,3.20515 -1.4375,4.3457 -0.741345,1.14054 -1.839457,2.05128 -5.214844,3.09766 -3.375384,1.04637 -8.911707,2.10679 -15.886719,3.19336 -6.975011,1.08656 -15.406742,2.20951 -21.607421,2.91015 -6.200677,0.70065 -10.112482,0.95456 -13.140626,0.4336 -0.791147,-0.13611 -9.168543,-1.67174 -8.019531,-5.48438 0.295966,-0.98207 0.755323,-1.90461 1.345703,-2.75586 0.590379,-0.85125 1.296575,-1.6171 2.304688,-2.4668 1.008112,-0.84969 2.231552,-1.71773 4.294922,-2.65429 2.063367,-0.93657 5.01985,-1.94651 8.082031,-2.95703 3.062181,-1.01052 6.21823,-2.01901 8.341797,-2.53516 2.123565,-0.51615 3.211624,-0.55874 4.089844,-0.51758 0.878214,0.0412 1.475686,0.1727 2.18164,0.32617 0.689301,0.15007 1.369709,-0.2872 1.519532,-0.97656 0.150073,-0.6893 -0.287207,-1.36971 -0.976563,-1.51953 -0.705954,-0.15347 -1.519263,-0.32994 -2.605469,-0.38086 -1.086201,-0.0509 -2.516113,0.0278 -4.8125,0.58594 -0.87124,0.21176 -1.891711,0.50332 -2.960937,0.82226 -0.08685,-1.36223 -0.121872,-2.64708 0.09766,-3.81054 0.265598,-1.40766 0.929339,-2.76505 1.742187,-3.58985 0.812853,-0.8248 1.864663,-1.26848 3.0625,-1.41015 0.299462,-0.0354 0.607723,-0.0504 0.923829,-0.0469 z m 79.888669,5.14258 h 1.99414 c 0.69062,0 1.29022,-4e-4 2.03125,0.0957 0.37467,0.0486 0.8063,0.12638 1.26758,0.21875 -0.10293,0.15833 -0.20389,0.33101 -0.29492,0.5586 -0.24069,0.60173 -0.36294,1.27307 -0.38281,1.98828 -0.0142,0.50977 0.0453,0.9802 0.14258,1.40625 -1.35686,-0.1764 -2.90695,-0.37334 -4.07422,-0.61133 -1.47688,-0.30111 -2.14756,-0.65153 -2.44336,-0.96289 -0.29579,-0.31136 -0.48827,-0.88416 -0.70313,-1.71289 -0.0522,-0.18202 -0.1443,-0.35014 -0.26953,-0.49219 0.002,-0.001 0.004,-0.003 0.006,-0.004 0.2524,-0.13125 0.56937,-0.23342 0.86914,-0.32812 0.29977,-0.0947 0.31847,-0.11026 0.54492,-0.13086 0.22645,-0.0204 0.71397,-0.0254 1.3125,-0.0254 z m -50.453122,0.42383 h 1.99414 c 0.598532,0 1.086056,0.005 1.3125,0.0254 0.22645,0.0206 0.245152,0.0362 0.544922,0.13086 0.299769,0.0947 0.616737,0.19687 0.869141,0.32812 0.0019,9.9e-4 0.0039,0.003 0.0059,0.004 -0.125226,0.14205 -0.217292,0.31017 -0.269531,0.49219 -0.214856,0.82873 -0.407337,1.40153 -0.703125,1.71289 -0.295799,0.31136 -0.966484,0.66178 -2.44336,0.96289 -1.167508,0.23803 -2.717198,0.4349 -4.074218,0.61133 0.09725,-0.42605 0.156737,-0.89648 0.142578,-1.40625 -0.01987,-0.71521 -0.142125,-1.38656 -0.382813,-1.98829 -0.09112,-0.2278 -0.191887,-0.40016 -0.294922,-0.55859 0.461278,-0.0924 0.89291,-0.17018 1.267579,-0.21875 0.741038,-0.0961 1.340636,-0.0957 2.03125,-0.0957 z m 10.595703,14.35351 c 0.281445,1.29163 0.518052,2.56234 0.695312,3.72852 0.285177,1.87616 0.435037,3.5033 0.509766,4.56445 0.03736,0.53058 0.0271,0.84686 0.01367,0.90821 -0.0022,0.0102 0.0014,0.01 0.0039,0.0117 -0.0029,-0.004 -0.0015,-0.0131 -0.05273,0.0234 -0.273229,0.19517 -1.591785,0.6858 -3.9375,1.48828 -2.345714,0.80249 -5.719488,1.99872 -9.322265,3.25586 -3.602778,1.25714 -7.412793,2.56688 -11.574219,3.73633 -4.161425,1.16945 -8.704467,2.20472 -12.617187,2.90234 -3.91272,0.69762 -7.190132,1.05753 -10.113282,1.11719 -2.923147,0.0597 -5.509128,-0.17916 -7.896484,-0.58203 -2.387355,-0.40286 -4.570886,-0.97019 -6.636719,-1.60351 -2.065832,-0.63331 -4.021191,-1.34199 -5.013672,-1.79688 -0.49624,-0.22744 -0.556689,-0.2952 -0.597656,-0.35547 -0.04097,-0.0603 -0.162764,-0.35734 -0.285156,-1.11328 -0.244783,-1.51189 -0.525966,-4.44973 -0.59961,-6.1582 -0.02801,-0.64997 -0.02349,-1.08906 -0.0078,-1.47071 2.423999,1.34456 5.015693,2.73598 8.355469,3.31055 3.512022,0.60421 7.61458,0.29569 13.861328,-0.41016 6.246748,-0.70584 14.693418,-1.83229 21.712891,-2.92578 7.019474,-1.09349 12.593007,-2.14367 16.25,-3.27734 3.656987,-1.13367 5.512538,-2.4721 6.599609,-4.14453 0.256122,-0.39404 0.467531,-0.79895 0.652344,-1.20899 z m 30.806639,1.92188 c 0.13267,0.25777 0.27461,0.51306 0.4375,0.76367 1.08707,1.67243 2.94262,3.01086 6.59961,4.14453 3.65699,1.13367 9.23053,2.18386 16.25,3.27735 7.01947,1.09349 15.46614,2.21994 21.71289,2.92578 6.24675,0.70585 10.34931,1.01436 13.86133,0.41015 3.51203,-0.60421 6.20468,-2.11112 8.73633,-3.51757 0.10096,-0.0575 0.19362,-0.12843 0.27539,-0.21094 -0.0743,1.70984 -0.35528,4.63739 -0.59961,6.14648 -0.12239,0.75594 -0.24419,1.05298 -0.28516,1.11328 -0.041,0.0603 -0.10141,0.12803 -0.59765,0.35547 -0.99248,0.45489 -2.94784,1.16357 -5.01368,1.79688 -2.06583,0.63332 -4.24936,1.20065 -6.63671,1.60351 -2.38736,0.40287 -4.97334,0.64173 -7.89649,0.58203 -2.92315,-0.0597 -6.20056,-0.41956 -10.11328,-1.11718 -3.91272,-0.69762 -8.45576,-1.7329 -12.61719,-2.90235 -4.16142,-1.16945 -7.97144,-2.47919 -11.57422,-3.73633 -3.60277,-1.25714 -6.97655,-2.45339 -9.32226,-3.25585 -2.34572,-0.80249 -3.66427,-1.29312 -3.9375,-1.48829 -0.0512,-0.0366 -0.0498,-0.0277 -0.0527,-0.0234 0.002,-0.002 0.006,-0.002 0.004,-0.0117 -0.0134,-0.0614 -0.0237,-0.37763 0.0137,-0.90821 0.0747,-1.06115 0.22459,-2.68829 0.50977,-4.56445 0.0664,-0.43664 0.16504,-0.9218 0.24609,-1.38281 z"
     sodipodi:nodetypes="cccssssssscsssscssssssssssssscssssssssssssssccscssssssscccscssssssssssssssssssssssssccssssssccsssssscsscsssssscssssssccsssssssssssssssssssssssscsccsssssssscscsssssssssssssscssssssssssssssssssccsssssssccccccsssssssssssscsssssssssssscsscccsssscccsssssssscccsssscccsssssssssssssssssssscssssssssssssssssssssssccssscsssssssssssssssscscscssssssssssssssssssssscccsssssccsssssccssssssssssssccccsssscssscccssscscsssssccccssssscsccssscccssscsssssssssssscccsssssssccssssscscccsssccscsssssccccssssscscssscccssscssssccccsssssssssssccccsscsccssscscscccssscccssssccccsscccsccccscccssssssscsssssscssccsssssssssscsccscsssssssssscsscssssssccssssssccsssscsssccssssssssccsssssccscssscccsssssssssssssscccssscscsccsssssccsssssssccssssssssscsscsscccscssscssccsscsscssssssccssssssssssscsssssccsssssccssssssssssscsssccssssssssssscccscs" /></g></svg>
